<svg width="48" height="48" viewBox="0 0 48 48" fill="none" xmlns="http://www.w3.org/2000/svg">
<path d="M24 10.2857C22.3047 10.2857 20.6475 10.7884 19.238 11.7303C17.8284 12.6721 16.7298 14.0108 16.081 15.577C15.4323 17.1432 15.2625 18.8666 15.5933 20.5293C15.924 22.192 16.7404 23.7193 17.9391 24.9181C19.1378 26.1168 20.6651 26.9331 22.3278 27.2639C23.9905 27.5946 25.7139 27.4249 27.2802 26.7761C28.8464 26.1274 30.185 25.0287 31.1269 23.6192C32.0687 22.2096 32.5714 20.5524 32.5714 18.8571C32.5714 16.5839 31.6684 14.4037 30.0609 12.7962C28.4535 11.1888 26.2733 10.2857 24 10.2857ZM24 24C22.9828 24 21.9885 23.6984 21.1428 23.1333C20.297 22.5682 19.6379 21.765 19.2486 20.8252C18.8594 19.8855 18.7575 18.8514 18.956 17.8538C19.1544 16.8562 19.6442 15.9398 20.3635 15.2206C21.0827 14.5013 21.9991 14.0115 22.9967 13.8131C23.9943 13.6147 25.0284 13.7165 25.9681 14.1058C26.9078 14.495 27.711 15.1542 28.2761 15.9999C28.8412 16.8457 29.1429 17.84 29.1429 18.8571C29.1415 20.2207 28.5992 21.528 27.6351 22.4922C26.6709 23.4564 25.3636 23.9986 24 24Z" fill="white"/>
<path d="M24 0C19.2533 0 14.6131 1.40758 10.6663 4.04473C6.71954 6.68188 3.6434 10.4302 1.8269 14.8156C0.0103988 19.201 -0.464881 24.0266 0.461164 28.6822C1.38721 33.3377 3.67299 37.6141 7.02945 40.9706C10.3859 44.327 14.6623 46.6128 19.3178 47.5388C23.9734 48.4649 28.799 47.9896 33.1844 46.1731C37.5698 44.3566 41.3181 41.2805 43.9553 37.3337C46.5924 33.3869 48 28.7467 48 24C47.9927 17.637 45.4618 11.5368 40.9625 7.03745C36.4632 2.53815 30.363 0.00725952 24 0ZM13.7143 41.7891V39.4286C13.7157 38.065 14.2579 36.7577 15.2221 35.7935C16.1863 34.8293 17.4936 34.2871 18.8572 34.2857H29.1429C30.5064 34.2871 31.8137 34.8293 32.7779 35.7935C33.7421 36.7577 34.2844 38.065 34.2857 39.4286V41.7891C31.1643 43.6118 27.6146 44.5723 24 44.5723C20.3854 44.5723 16.8357 43.6118 13.7143 41.7891ZM37.7006 39.3017C37.6664 37.0531 36.7503 34.908 35.1496 33.3284C33.5489 31.7489 31.3917 30.8614 29.1429 30.8571H18.8572C16.6083 30.8614 14.4512 31.7489 12.8504 33.3284C11.2497 34.908 10.3336 37.0531 10.2994 39.3017C7.19069 36.5258 4.9984 32.8712 4.01287 28.8217C3.02733 24.7722 3.29504 20.5189 4.78053 16.6249C6.26603 12.7309 8.89924 9.38 12.3315 7.01583C15.7638 4.65165 19.8332 3.38576 24.0009 3.38576C28.1686 3.38576 32.238 4.65165 35.6702 7.01583C39.1025 9.38 41.7357 12.7309 43.2212 16.6249C44.7067 20.5189 44.9744 24.7722 43.9889 28.8217C43.0033 32.8712 40.8093 36.5258 37.7006 39.3017Z" fill="white"/>
</svg>
