<svg width="48" height="48" viewBox="0 0 48 48" fill="none" xmlns="http://www.w3.org/2000/svg">
<g clip-path="url(#clip0_72_62)">
<path d="M47.7675 19.4325C47.7675 16.6013 46.2338 13.9425 39.3113 13.9425H8.72629C1.80004 13.9425 0.266294 16.6013 0.266294 19.4325V25.2713C0.266294 25.2863 0.273794 25.2938 0.273794 25.3088C0.243794 25.71 0.232544 26.115 0.232544 26.52V39.9C0.232544 40.5788 0.776294 41.1225 1.45504 41.1225H46.545C47.22 41.1225 47.7675 40.5788 47.7675 39.9V26.52C47.7675 26.16 47.7563 25.8038 47.7338 25.4475C47.7525 25.3913 47.7675 25.335 47.7675 25.2675V19.4325Z" fill="#FCC21B"/>
<path d="M-0.944946 19.455H49.2638V30.8775H-0.944946V19.455Z" fill="#F79329"/>
<path d="M14.625 40.8038C14.625 43.2863 12.6112 45.2925 10.1325 45.2925C7.64998 45.2925 5.63623 43.2825 5.63623 40.8038C5.63623 38.3175 7.64998 36.315 10.1325 36.315C12.6112 36.315 14.625 38.3213 14.625 40.8038ZM41.3287 40.8038C41.3287 43.2863 39.315 45.2925 36.8362 45.2925C34.3537 45.2925 32.34 43.2825 32.34 40.8038C32.34 38.3175 34.3537 36.315 36.8362 36.315C39.3187 36.315 41.3287 38.3213 41.3287 40.8038Z" fill="#2F2F2F"/>
<path d="M13.2488 28.155C13.2488 28.8113 12.72 29.34 12.06 29.34H8.19754C7.54129 29.34 7.00879 28.8113 7.00879 28.155V21.8588C7.00879 21.2025 7.54129 20.67 8.19754 20.67H12.06C12.7163 20.67 13.2488 21.2025 13.2488 21.8588V28.155ZM23.9175 21.8588C23.9175 21.2025 23.385 20.67 22.725 20.67H18.8625C18.2063 20.67 17.6775 21.2025 17.6775 21.8588V28.155C17.6775 28.8113 18.2063 29.34 18.8625 29.34H22.725C23.3813 29.34 23.9175 28.8113 23.9175 28.155V21.8588V21.8588ZM32.5613 21.8588C32.5603 21.5431 32.4342 21.2408 32.2107 21.018C31.9872 20.7951 31.6844 20.67 31.3688 20.67H27.5063C26.85 20.67 26.3175 21.2025 26.3175 21.8588V28.155C26.3175 28.8113 26.85 29.34 27.5063 29.34H31.3725C32.0288 29.34 32.565 28.8113 32.565 28.155V21.8588H32.5613ZM40.9313 21.8588C40.9313 21.2025 40.4025 20.67 39.7388 20.67H35.8763C35.22 20.67 34.6875 21.2025 34.6875 21.8588V28.155C34.6875 28.8113 35.22 29.34 35.8763 29.34H39.735C40.3988 29.34 40.9275 28.8113 40.9275 28.155V21.8588H40.9313Z" fill="white"/>
</g>
<defs>
<clipPath id="clip0_72_62">
<rect width="48" height="48" fill="white"/>
</clipPath>
</defs>
</svg>
