<svg width="375" height="162" viewBox="0 0 375 162" fill="none" xmlns="http://www.w3.org/2000/svg">
<g clip-path="url(#clip0_62_220)">
<path d="M10.4934 141.538C10.4947 139.909 11.1424 138.348 12.2944 137.197C13.4464 136.046 15.0083 135.399 16.6368 135.399C18.2653 135.399 19.8272 136.046 20.9792 137.197C22.1311 138.348 22.7789 139.909 22.7802 141.538" fill="#F2F2F2"/>
<path d="M16.6367 141.538C16.5927 141.538 16.5505 141.521 16.5193 141.489C16.4882 141.458 16.4707 141.416 16.4707 141.372V138.134C16.4707 138.09 16.4882 138.048 16.5193 138.017C16.5505 137.986 16.5927 137.968 16.6367 137.968C16.6808 137.968 16.723 137.986 16.7541 138.017C16.7853 138.048 16.8028 138.09 16.8028 138.134V141.372C16.8028 141.416 16.7853 141.458 16.7541 141.489C16.723 141.521 16.6808 141.538 16.6367 141.538V141.538Z" fill="#CCCCCC"/>
<path d="M16.6367 140.425C16.597 140.425 16.5587 140.411 16.5286 140.385L14.5362 138.675C14.5194 138.661 14.5056 138.644 14.4956 138.624C14.4856 138.605 14.4795 138.584 14.4777 138.562C14.4759 138.54 14.4785 138.518 14.4853 138.497C14.4921 138.476 14.5029 138.457 14.5172 138.44C14.5315 138.424 14.5489 138.41 14.5685 138.4C14.5881 138.39 14.6095 138.384 14.6313 138.383C14.6532 138.381 14.6752 138.384 14.696 138.391C14.7168 138.398 14.736 138.409 14.7525 138.423L16.7449 140.133C16.7707 140.155 16.789 140.185 16.7975 140.218C16.806 140.251 16.8043 140.285 16.7925 140.317C16.7807 140.349 16.7594 140.376 16.7316 140.396C16.7037 140.415 16.6706 140.425 16.6367 140.425L16.6367 140.425Z" fill="#CCCCCC"/>
<path d="M29.4216 141.538C29.4229 139.909 30.0707 138.348 31.2226 137.197C32.3746 136.046 33.9365 135.399 35.565 135.399C37.1935 135.399 38.7554 136.046 39.9074 137.197C41.0594 138.348 41.7072 139.909 41.7084 141.538" fill="#F2F2F2"/>
<path d="M35.5651 141.538C35.5211 141.538 35.4788 141.521 35.4477 141.489C35.4165 141.458 35.399 141.416 35.399 141.372V138.134C35.399 138.09 35.4165 138.048 35.4477 138.017C35.4788 137.986 35.521 137.968 35.5651 137.968C35.6091 137.968 35.6514 137.986 35.6825 138.017C35.7136 138.048 35.7311 138.09 35.7311 138.134V141.372C35.7311 141.416 35.7136 141.458 35.6825 141.489C35.6513 141.521 35.6091 141.538 35.5651 141.538V141.538Z" fill="#CCCCCC"/>
<path d="M35.5649 140.425C35.5253 140.425 35.4869 140.411 35.4568 140.385L33.4644 138.675C33.4476 138.661 33.4338 138.644 33.4237 138.624C33.4137 138.605 33.4076 138.584 33.4058 138.562C33.404 138.54 33.4066 138.518 33.4134 138.497C33.4202 138.476 33.431 138.457 33.4453 138.44C33.4596 138.423 33.4771 138.41 33.4967 138.4C33.5163 138.39 33.5376 138.384 33.5595 138.383C33.5814 138.381 33.6034 138.384 33.6242 138.391C33.645 138.398 33.6642 138.409 33.6807 138.423L35.6731 140.133C35.6989 140.156 35.7173 140.185 35.7258 140.218C35.7343 140.251 35.7325 140.285 35.7207 140.317C35.7089 140.349 35.6877 140.376 35.6598 140.396C35.632 140.415 35.5988 140.425 35.5649 140.425L35.5649 140.425Z" fill="#CCCCCC"/>
<path d="M280.874 24.0895C287.397 24.0895 292.684 18.8017 292.684 12.279C292.684 5.75619 287.397 0.468445 280.874 0.468445C274.351 0.468445 269.063 5.75619 269.063 12.279C269.063 18.8017 274.351 24.0895 280.874 24.0895Z" fill="#F2F2F2"/>
<path d="M33.4564 49.3759C36.2723 40.5829 43.1481 33.7637 51.3024 29.7078C60.9774 24.8956 72.095 24.3507 82.6 26.2236C93.9402 28.2455 104.539 32.9064 114.798 37.9928C124.861 42.9818 134.762 48.2499 145.227 52.3728C166.119 60.5921 188.263 65.1791 210.702 65.9354C230.898 66.6092 252.492 64.3963 269.785 53.0448C285.63 42.6437 295.712 25.4849 300.964 7.59877C301.636 5.30893 302.234 2.9994 302.757 0.670183C302.909 -0.00262927 301.874 -0.289895 301.721 0.384757C297.485 19.0624 288.453 37.5224 273.019 49.4284C256.326 62.3056 234.419 65.2824 213.917 64.9418C191.234 64.5457 168.791 60.2148 147.588 52.142C136.854 48.0554 126.724 42.7489 116.466 37.6259C106.433 32.6154 96.1175 27.9251 85.0847 25.6142C75.0102 23.5041 64.2239 23.3755 54.5105 27.1304C46.5123 30.2223 39.2196 35.7334 34.9518 43.2724C33.9112 45.1199 33.0632 47.0695 32.4211 49.0904C32.2098 49.75 33.2461 50.0324 33.4564 49.3759V49.3759Z" fill="#F2F2F2"/>
<path d="M186.743 131.59C186.838 131.59 186.929 131.553 186.996 131.485C187.064 131.418 187.101 131.327 187.101 131.232C187.101 131.137 187.064 131.046 186.996 130.979C186.929 130.912 186.838 130.874 186.743 130.874H183.343V129.443H186.743C186.838 129.443 186.929 129.405 186.996 129.338C187.064 129.271 187.101 129.18 187.101 129.085C187.101 128.99 187.064 128.899 186.996 128.832C186.929 128.765 186.838 128.727 186.743 128.727H157.754C157.659 128.727 157.568 128.765 157.501 128.832C157.434 128.899 157.396 128.99 157.396 129.085C157.396 129.18 157.434 129.271 157.501 129.338C157.568 129.405 157.659 129.443 157.754 129.443H161.154V130.874H157.754C157.659 130.874 157.568 130.912 157.501 130.979C157.434 131.046 157.396 131.137 157.396 131.232C157.396 131.327 157.434 131.418 157.501 131.485C157.568 131.553 157.659 131.59 157.754 131.59H161.154V133.022H157.754C157.659 133.022 157.568 133.059 157.501 133.127C157.434 133.194 157.396 133.285 157.396 133.38C157.396 133.475 157.434 133.566 157.501 133.633C157.568 133.7 157.659 133.738 157.754 133.738H161.154V135.169H158.112C157.922 135.169 157.74 135.245 157.606 135.379C157.471 135.513 157.396 135.695 157.396 135.885C157.396 136.075 157.471 136.257 157.606 136.391C157.74 136.525 157.922 136.601 158.112 136.601H161.008C160.987 136.658 160.976 136.719 160.975 136.78V141.79C160.975 141.933 161.032 142.069 161.132 142.17C161.233 142.27 161.369 142.327 161.512 142.327C161.654 142.327 161.791 142.27 161.891 142.17C161.992 142.069 162.049 141.933 162.049 141.79V136.78C162.048 136.719 162.037 136.658 162.016 136.601H182.481C182.46 136.658 182.449 136.719 182.449 136.78V141.79C182.449 141.933 182.505 142.069 182.606 142.17C182.707 142.27 182.843 142.327 182.985 142.327C183.128 142.327 183.264 142.27 183.365 142.17C183.466 142.069 183.522 141.933 183.522 141.79V136.78C183.522 136.719 183.511 136.658 183.489 136.601H186.385C186.575 136.601 186.757 136.525 186.892 136.391C187.026 136.257 187.101 136.075 187.101 135.885C187.101 135.695 187.026 135.513 186.892 135.379C186.757 135.245 186.575 135.169 186.385 135.169H183.343V133.738H186.743C186.838 133.738 186.929 133.7 186.996 133.633C187.064 133.566 187.101 133.475 187.101 133.38C187.101 133.285 187.064 133.194 186.996 133.127C186.929 133.059 186.838 133.022 186.743 133.022H183.343V131.59H186.743ZM161.87 129.443H182.628V130.874H161.87V129.443ZM182.628 135.169H161.87V133.738H182.628V135.169ZM182.628 133.022H161.87V131.59H182.628V133.022Z" fill="#17222B"/>
<path d="M77.5898 116.569C77.5898 110.248 72.4623 95.2489 66.1372 95.2489C59.8121 95.2489 54.6846 110.248 54.6846 116.569C54.6846 119.606 55.8912 122.519 58.039 124.667C60.1868 126.815 63.0998 128.021 66.1372 128.021C69.1746 128.021 72.0876 126.815 74.2354 124.667C76.3832 122.519 77.5898 119.606 77.5898 116.569H77.5898Z" fill="#E6E6E6"/>
<path d="M74.7267 116.569C74.7267 110.248 69.5991 95.2489 63.274 95.2489C56.9489 95.2489 51.8214 110.248 51.8214 116.569C51.8214 119.606 53.028 122.519 55.1758 124.667C57.3236 126.815 60.2366 128.021 63.274 128.021C66.3115 128.021 69.2245 126.815 71.3723 124.667C73.5201 122.519 74.7267 119.606 74.7267 116.569H74.7267Z" fill="#F2F2F2"/>
<path d="M63.6319 142.176C63.537 142.176 63.446 142.139 63.3789 142.072C63.3118 142.004 63.2741 141.913 63.274 141.818V109.916C63.274 109.821 63.3118 109.73 63.3789 109.662C63.446 109.595 63.537 109.558 63.6319 109.558C63.7269 109.558 63.8179 109.595 63.885 109.662C63.9521 109.73 63.9898 109.821 63.9898 109.916V141.818C63.9898 141.913 63.9521 142.004 63.885 142.072C63.8179 142.139 63.7269 142.176 63.6319 142.176Z" fill="#CCCCCC"/>
<path d="M63.632 115.146C63.5612 115.145 63.492 115.125 63.4332 115.085C63.3744 115.046 63.3285 114.99 63.3014 114.925C63.2743 114.859 63.2672 114.787 63.281 114.718C63.2948 114.648 63.3289 114.585 63.379 114.535L68.0594 109.854C68.1265 109.787 68.2175 109.749 68.3124 109.749C68.4073 109.749 68.4983 109.787 68.5655 109.854C68.6326 109.921 68.6703 110.012 68.6703 110.107C68.6703 110.202 68.6326 110.293 68.5655 110.36L63.885 115.041C63.8519 115.074 63.8124 115.1 63.769 115.118C63.7256 115.136 63.679 115.146 63.632 115.146V115.146Z" fill="#CCCCCC"/>
<path d="M195.337 142.176C195.242 142.176 195.151 142.139 195.084 142.072C195.017 142.004 194.979 141.913 194.979 141.818V109.916C194.979 109.821 195.017 109.73 195.084 109.662C195.151 109.595 195.242 109.558 195.337 109.558C195.432 109.558 195.523 109.595 195.59 109.662C195.657 109.73 195.695 109.821 195.695 109.916V141.818C195.695 141.913 195.657 142.004 195.59 142.072C195.523 142.139 195.432 142.176 195.337 142.176Z" fill="#17222B"/>
<path d="M233.632 116.569C233.632 110.248 228.504 95.2489 222.179 95.2489C215.854 95.2489 210.727 110.248 210.727 116.569C210.727 119.606 211.933 122.519 214.081 124.667C216.229 126.815 219.142 128.021 222.179 128.021C225.217 128.021 228.13 126.815 230.277 124.667C232.425 122.519 233.632 119.606 233.632 116.569H233.632Z" fill="#E6E6E6"/>
<path d="M230.769 116.569C230.769 110.248 225.641 95.2489 219.316 95.2489C212.991 95.2489 207.863 110.248 207.863 116.569C207.863 119.606 209.07 122.519 211.218 124.667C213.365 126.815 216.278 128.021 219.316 128.021C222.353 128.021 225.266 126.815 227.414 124.667C229.562 122.519 230.769 119.606 230.769 116.569H230.769Z" fill="#F2F2F2"/>
<path d="M219.674 142.176C219.579 142.176 219.488 142.139 219.421 142.072C219.354 142.004 219.316 141.913 219.316 141.818V109.916C219.316 109.821 219.354 109.73 219.421 109.662C219.488 109.595 219.579 109.558 219.674 109.558C219.769 109.558 219.86 109.595 219.927 109.662C219.994 109.73 220.032 109.821 220.032 109.916V141.818C220.032 141.913 219.994 142.004 219.927 142.072C219.86 142.139 219.769 142.176 219.674 142.176Z" fill="#CCCCCC"/>
<path d="M219.674 115.146C219.603 115.145 219.534 115.125 219.475 115.085C219.416 115.046 219.37 114.99 219.343 114.925C219.316 114.859 219.309 114.787 219.323 114.718C219.337 114.648 219.371 114.585 219.421 114.535L224.101 109.854C224.168 109.787 224.259 109.749 224.354 109.749C224.449 109.749 224.54 109.787 224.607 109.854C224.674 109.921 224.712 110.012 224.712 110.107C224.712 110.202 224.674 110.293 224.607 110.36L219.927 115.041C219.894 115.074 219.854 115.1 219.811 115.118C219.767 115.136 219.721 115.146 219.674 115.146Z" fill="#CCCCCC"/>
<path d="M101.569 18.5421H95.8425C95.4155 18.5416 95.0061 18.3718 94.7042 18.0699C94.4022 17.768 94.2324 17.3586 94.2319 16.9316V3.6895C94.2324 3.26251 94.4022 2.85315 94.7042 2.55122C95.0061 2.24929 95.4155 2.07945 95.8425 2.07898H101.569C101.996 2.07945 102.405 2.24929 102.707 2.55122C103.009 2.85315 103.179 3.26251 103.179 3.6895V16.9316C103.179 17.3586 103.009 17.768 102.707 18.0699C102.405 18.3718 101.996 18.5416 101.569 18.5421V18.5421Z" fill="#E6E6E6"/>
<path d="M124.116 142.016H94.7688C93.9622 142.015 93.189 141.694 92.6187 141.124C92.0484 140.553 91.7276 139.78 91.7267 138.974V20.5105C91.7276 19.704 92.0484 18.9308 92.6187 18.3605C93.189 17.7902 93.9622 17.4694 94.7688 17.4684H124.116C124.923 17.4693 125.696 17.7901 126.266 18.3605C126.837 18.9308 127.157 19.704 127.158 20.5105V138.974C127.157 139.78 126.837 140.553 126.266 141.124C125.696 141.694 124.923 142.015 124.116 142.016V142.016Z" fill="#E6E6E6"/>
<path d="M106.579 142.016H77.2319C76.4254 142.015 75.6521 141.694 75.0818 141.124C74.5115 140.553 74.1907 139.78 74.1898 138.974V20.5105C74.1907 19.704 74.5115 18.9308 75.0818 18.3605C75.6521 17.7902 76.4254 17.4694 77.2319 17.4684H106.579C107.386 17.4694 108.159 17.7902 108.729 18.3605C109.3 18.9308 109.62 19.704 109.621 20.5105V138.974C109.62 139.78 109.3 140.553 108.729 141.124C108.159 141.694 107.386 142.015 106.579 142.016V142.016Z" fill="#F2F2F2"/>
<path d="M96.2004 18.5421H90.474C90.0471 18.5416 89.6377 18.3718 89.3358 18.0699C89.0338 17.768 88.864 17.3586 88.8635 16.9316V3.6895C88.864 3.26251 89.0338 2.85315 89.3358 2.55122C89.6377 2.24929 90.0471 2.07945 90.474 2.07898H96.2004C96.6274 2.07945 97.0367 2.24929 97.3386 2.55122C97.6406 2.85315 97.8104 3.26251 97.8109 3.6895V16.9316C97.8104 17.3586 97.6406 17.768 97.3386 18.0699C97.0367 18.3718 96.6274 18.5416 96.2004 18.5421V18.5421Z" fill="#F2F2F2"/>
<path d="M88.6845 44.3105H81.8845C81.6473 44.3102 81.4198 44.2159 81.2521 44.0481C81.0844 43.8804 80.99 43.653 80.9897 43.4158V33.0368C80.99 32.7996 81.0844 32.5722 81.2521 32.4044C81.4198 32.2367 81.6473 32.1424 81.8845 32.1421H88.6845C88.9217 32.1424 89.1491 32.2367 89.3169 32.4044C89.4846 32.5722 89.5789 32.7996 89.5792 33.0368V43.4158C89.5789 43.653 89.4846 43.8804 89.3169 44.0481C89.1491 44.2159 88.9217 44.3102 88.6845 44.3105V44.3105Z" fill="white"/>
<path d="M101.927 44.3105H95.1267C94.8895 44.3102 94.662 44.2159 94.4943 44.0481C94.3266 43.8804 94.2322 43.653 94.2319 43.4158V33.0368C94.2322 32.7996 94.3266 32.5722 94.4943 32.4044C94.662 32.2367 94.8895 32.1424 95.1267 32.1421H101.927C102.164 32.1424 102.391 32.2367 102.559 32.4044C102.727 32.5722 102.821 32.7996 102.821 33.0368V43.4158C102.821 43.653 102.727 43.8804 102.559 44.0481C102.391 44.2159 102.164 44.3102 101.927 44.3105V44.3105Z" fill="white"/>
<path d="M88.6845 63.2789H81.8845C81.6473 63.2786 81.4198 63.1843 81.2521 63.0166C81.0844 62.8488 80.99 62.6214 80.9897 62.3842V52.0052C80.99 51.768 81.0844 51.5406 81.2521 51.3729C81.4198 51.2051 81.6473 51.1108 81.8845 51.1105H88.6845C88.9217 51.1108 89.1491 51.2051 89.3169 51.3729C89.4846 51.5406 89.5789 51.768 89.5792 52.0052V62.3842C89.5789 62.6214 89.4846 62.8488 89.3169 63.0166C89.1491 63.1843 88.9217 63.2786 88.6845 63.2789V63.2789Z" fill="white"/>
<path d="M101.927 63.2789H95.1267C94.8895 63.2786 94.662 63.1843 94.4943 63.0166C94.3266 62.8488 94.2322 62.6214 94.2319 62.3842V52.0052C94.2322 51.768 94.3266 51.5406 94.4943 51.3729C94.662 51.2051 94.8895 51.1108 95.1267 51.1105H101.927C102.164 51.1108 102.391 51.2051 102.559 51.3729C102.727 51.5406 102.821 51.768 102.821 52.0052V62.3842C102.821 62.6214 102.727 62.8488 102.559 63.0166C102.391 63.1843 102.164 63.2786 101.927 63.2789V63.2789Z" fill="white"/>
<path d="M88.6845 82.2473H81.8845C81.6473 82.2471 81.4198 82.1527 81.2521 81.985C81.0844 81.8172 80.99 81.5898 80.9897 81.3526V70.9737C80.99 70.7364 81.0844 70.509 81.2521 70.3413C81.4198 70.1735 81.6473 70.0792 81.8845 70.0789H88.6845C88.9217 70.0792 89.1491 70.1735 89.3169 70.3413C89.4846 70.509 89.5789 70.7364 89.5792 70.9737V81.3526C89.5789 81.5898 89.4846 81.8172 89.3169 81.985C89.1491 82.1527 88.9217 82.2471 88.6845 82.2473V82.2473Z" fill="white"/>
<path d="M101.927 82.2473H95.1267C94.8895 82.2471 94.662 82.1527 94.4943 81.985C94.3266 81.8172 94.2322 81.5898 94.2319 81.3526V70.9737C94.2322 70.7364 94.3266 70.509 94.4943 70.3413C94.662 70.1735 94.8895 70.0792 95.1267 70.0789H101.927C102.164 70.0792 102.391 70.1735 102.559 70.3413C102.727 70.509 102.821 70.7364 102.821 70.9737V81.3526C102.821 81.5898 102.727 81.8172 102.559 81.985C102.391 82.1527 102.164 82.2471 101.927 82.2473V82.2473Z" fill="white"/>
<path d="M88.6845 101.216H81.8845C81.6473 101.215 81.4198 101.121 81.2521 100.953C81.0844 100.786 80.99 100.558 80.9897 100.321V89.942C80.99 89.7048 81.0844 89.4774 81.2521 89.3097C81.4198 89.1419 81.6473 89.0476 81.8845 89.0473H88.6845C88.9217 89.0476 89.1491 89.1419 89.3169 89.3097C89.4846 89.4774 89.5789 89.7048 89.5792 89.942V100.321C89.5789 100.558 89.4846 100.786 89.3169 100.953C89.1491 101.121 88.9217 101.215 88.6845 101.216V101.216Z" fill="white"/>
<path d="M101.927 101.216H95.1267C94.8895 101.215 94.662 101.121 94.4943 100.953C94.3266 100.786 94.2322 100.558 94.2319 100.321V89.942C94.2322 89.7048 94.3266 89.4774 94.4943 89.3097C94.662 89.1419 94.8895 89.0476 95.1267 89.0473H101.927C102.164 89.0476 102.391 89.1419 102.559 89.3097C102.727 89.4774 102.821 89.7048 102.821 89.942V100.321C102.821 100.558 102.727 100.786 102.559 100.953C102.391 101.121 102.164 101.215 101.927 101.216V101.216Z" fill="white"/>
<path d="M88.6845 120.184H81.8845C81.6473 120.184 81.4198 120.089 81.2521 119.922C81.0844 119.754 80.99 119.527 80.9897 119.289V108.91C80.99 108.673 81.0844 108.446 81.2521 108.278C81.4198 108.11 81.6473 108.016 81.8845 108.016H88.6845C88.9217 108.016 89.1491 108.11 89.3169 108.278C89.4846 108.446 89.5789 108.673 89.5792 108.91V119.289C89.5789 119.527 89.4846 119.754 89.3169 119.922C89.1491 120.089 88.9217 120.184 88.6845 120.184V120.184Z" fill="white"/>
<path d="M101.927 120.184H95.1267C94.8895 120.184 94.662 120.089 94.4943 119.922C94.3266 119.754 94.2322 119.527 94.2319 119.289V108.91C94.2322 108.673 94.3266 108.446 94.4943 108.278C94.662 108.11 94.8895 108.016 95.1267 108.016H101.927C102.164 108.016 102.391 108.11 102.559 108.278C102.727 108.446 102.821 108.673 102.821 108.91V119.289C102.821 119.527 102.727 119.754 102.559 119.922C102.391 120.089 102.164 120.184 101.927 120.184V120.184Z" fill="white"/>
<path d="M249.379 81.1736H243.653C243.226 81.1731 242.816 81.0033 242.514 80.7014C242.213 80.3995 242.043 79.9901 242.042 79.5631V72.0473C242.043 71.6203 242.213 71.211 242.514 70.909C242.816 70.6071 243.226 70.4373 243.653 70.4368H249.379C249.806 70.4373 250.215 70.6071 250.517 70.909C250.819 71.211 250.989 71.6203 250.99 72.0473V79.5631C250.989 79.9901 250.819 80.3995 250.517 80.7014C250.215 81.0033 249.806 81.1731 249.379 81.1736Z" fill="#E6E6E6"/>
<path d="M297.695 142.374H268.348C267.541 142.373 266.768 142.052 266.197 141.482C265.627 140.911 265.306 140.138 265.305 139.331V82.4263C265.306 81.6197 265.627 80.8465 266.197 80.2762C266.768 79.7059 267.541 79.3851 268.348 79.3842H297.695C298.501 79.3851 299.275 79.7059 299.845 80.2762C300.415 80.8465 300.736 81.6197 300.737 82.4263V139.331C300.736 140.138 300.415 140.911 299.845 141.482C299.275 142.052 298.501 142.373 297.695 142.374V142.374Z" fill="#E6E6E6"/>
<path d="M280.158 142.374H229.337C228.53 142.373 227.757 142.052 227.187 141.482C226.617 140.911 226.296 140.138 226.295 139.331V82.4263C226.296 81.6197 226.617 80.8465 227.187 80.2762C227.757 79.7059 228.53 79.3851 229.337 79.3842H280.158C280.965 79.3851 281.738 79.7059 282.308 80.2762C282.878 80.8465 283.199 81.6197 283.2 82.4263V139.331C283.199 140.138 282.878 140.911 282.308 141.482C281.738 142.052 280.965 142.373 280.158 142.374V142.374Z" fill="#F2F2F2"/>
<path d="M244.011 81.1736H238.284C237.857 81.1731 237.448 81.0033 237.146 80.7014C236.844 80.3995 236.674 79.9901 236.674 79.5631V72.0473C236.674 71.6203 236.844 71.211 237.146 70.909C237.448 70.6071 237.857 70.4373 238.284 70.4368H244.011C244.438 70.4373 244.847 70.6071 245.149 70.909C245.451 71.211 245.621 71.6203 245.621 72.0473V79.5631C245.621 79.9901 245.451 80.3995 245.149 80.7014C244.847 81.0033 244.438 81.1731 244.011 81.1736V81.1736Z" fill="#F2F2F2"/>
<path d="M251.527 107.479H244.727C244.489 107.479 244.262 107.384 244.094 107.216C243.926 107.049 243.832 106.821 243.832 106.584V96.2052C243.832 95.968 243.926 95.7406 244.094 95.5728C244.262 95.4051 244.489 95.3107 244.727 95.3105H251.527C251.764 95.3107 251.991 95.4051 252.159 95.5728C252.327 95.7406 252.421 95.968 252.421 96.2052V106.584C252.421 106.821 252.327 107.049 252.159 107.216C251.991 107.384 251.764 107.479 251.527 107.479V107.479Z" fill="white"/>
<path d="M264.769 107.479H257.969C257.731 107.479 257.504 107.384 257.336 107.216C257.168 107.049 257.074 106.821 257.074 106.584V96.2052C257.074 95.968 257.168 95.7406 257.336 95.5728C257.504 95.4051 257.731 95.3107 257.969 95.3105H264.769C265.006 95.3107 265.233 95.4051 265.401 95.5728C265.569 95.7406 265.663 95.968 265.663 96.2052V106.584C265.663 106.821 265.569 107.049 265.401 107.216C265.233 107.384 265.006 107.479 264.769 107.479V107.479Z" fill="white"/>
<path d="M251.527 126.447H244.727C244.489 126.447 244.262 126.353 244.094 126.185C243.926 126.017 243.832 125.79 243.832 125.553V115.174C243.832 114.936 243.926 114.709 244.094 114.541C244.262 114.373 244.489 114.279 244.727 114.279H251.527C251.764 114.279 251.991 114.373 252.159 114.541C252.327 114.709 252.421 114.936 252.421 115.174V125.553C252.421 125.79 252.327 126.017 252.159 126.185C251.991 126.353 251.764 126.447 251.527 126.447V126.447Z" fill="white"/>
<path d="M264.769 126.447H257.969C257.731 126.447 257.504 126.353 257.336 126.185C257.168 126.017 257.074 125.79 257.074 125.553V115.174C257.074 114.936 257.168 114.709 257.336 114.541C257.504 114.373 257.731 114.279 257.969 114.279H264.769C265.006 114.279 265.233 114.373 265.401 114.541C265.569 114.709 265.663 114.936 265.663 115.174V125.553C265.663 125.79 265.569 126.017 265.401 126.185C265.233 126.353 265.006 126.447 264.769 126.447Z" fill="white"/>
<path d="M374.642 142.553H0.357894C0.262975 142.553 0.171943 142.515 0.104825 142.448C0.0377063 142.381 0 142.29 0 142.195C0 142.1 0.0377063 142.009 0.104825 141.942C0.171943 141.874 0.262975 141.837 0.357894 141.837H374.642C374.737 141.837 374.828 141.874 374.895 141.942C374.962 142.009 375 142.1 375 142.195C375 142.29 374.962 142.381 374.895 142.448C374.828 142.515 374.737 142.553 374.642 142.553Z" fill="#E6E6E6"/>
<path d="M129.842 155.079H96.5582C96.4633 155.079 96.3723 155.041 96.3051 154.974C96.238 154.907 96.2003 154.816 96.2003 154.721C96.2003 154.626 96.238 154.535 96.3051 154.468C96.3723 154.401 96.4633 154.363 96.5582 154.363H129.842C129.937 154.363 130.028 154.401 130.095 154.468C130.163 154.535 130.2 154.626 130.2 154.721C130.2 154.816 130.163 154.907 130.095 154.974C130.028 155.041 129.937 155.079 129.842 155.079Z" fill="#E6E6E6"/>
<path d="M212.516 155.079H179.232C179.137 155.079 179.046 155.041 178.979 154.974C178.912 154.907 178.874 154.816 178.874 154.721C178.874 154.626 178.912 154.535 178.979 154.468C179.046 154.401 179.137 154.363 179.232 154.363H212.516C212.611 154.363 212.702 154.401 212.769 154.468C212.836 154.535 212.874 154.626 212.874 154.721C212.874 154.816 212.836 154.907 212.769 154.974C212.702 155.041 212.611 155.079 212.516 155.079Z" fill="#E6E6E6"/>
<path d="M295.19 155.079H261.905C261.81 155.079 261.719 155.041 261.652 154.974C261.585 154.907 261.547 154.816 261.547 154.721C261.547 154.626 261.585 154.535 261.652 154.468C261.719 154.401 261.81 154.363 261.905 154.363H295.19C295.284 154.363 295.375 154.401 295.443 154.468C295.51 154.535 295.547 154.626 295.547 154.721C295.547 154.816 295.51 154.907 295.443 154.974C295.375 155.041 295.284 155.079 295.19 155.079Z" fill="#E6E6E6"/>
<path d="M148.811 116.569C148.811 110.248 143.683 95.2489 137.358 95.2489C131.033 95.2489 125.906 110.248 125.906 116.569C125.906 119.606 127.112 122.519 129.26 124.667C131.408 126.815 134.321 128.021 137.358 128.021C140.396 128.021 143.309 126.815 145.456 124.667C147.604 122.519 148.811 119.606 148.811 116.569H148.811Z" fill="#E6E6E6"/>
<path d="M145.948 116.569C145.948 110.248 140.82 95.2489 134.495 95.2489C128.17 95.2489 123.042 110.248 123.042 116.569C123.042 119.606 124.249 122.519 126.397 124.667C128.545 126.815 131.458 128.021 134.495 128.021C137.532 128.021 140.445 126.815 142.593 124.667C144.741 122.519 145.948 119.606 145.948 116.569H145.948Z" fill="#F2F2F2"/>
<path d="M134.853 142.176C134.758 142.176 134.667 142.139 134.6 142.072C134.533 142.004 134.495 141.913 134.495 141.818V109.916C134.495 109.821 134.533 109.73 134.6 109.662C134.667 109.595 134.758 109.558 134.853 109.558C134.948 109.558 135.039 109.595 135.106 109.662C135.173 109.73 135.211 109.821 135.211 109.916V141.818C135.211 141.913 135.173 142.004 135.106 142.072C135.039 142.139 134.948 142.176 134.853 142.176Z" fill="#CCCCCC"/>
<path d="M134.853 115.146C134.782 115.145 134.713 115.125 134.654 115.085C134.595 115.046 134.549 114.99 134.522 114.925C134.495 114.859 134.488 114.787 134.502 114.718C134.516 114.648 134.55 114.585 134.6 114.535L139.28 109.854C139.347 109.787 139.438 109.749 139.533 109.749C139.628 109.749 139.719 109.787 139.786 109.854C139.854 109.921 139.891 110.012 139.891 110.107C139.891 110.202 139.854 110.293 139.786 110.36L135.106 115.041C135.073 115.074 135.033 115.1 134.99 115.118C134.947 115.136 134.9 115.146 134.853 115.146Z" fill="#CCCCCC"/>
<path d="M331.695 116.569C331.695 110.248 326.567 95.2489 320.242 95.2489C313.917 95.2489 308.79 110.248 308.79 116.569C308.79 119.606 309.996 122.519 312.144 124.667C314.292 126.815 317.205 128.021 320.242 128.021C323.28 128.021 326.193 126.815 328.34 124.667C330.488 122.519 331.695 119.606 331.695 116.569H331.695Z" fill="#E6E6E6"/>
<path d="M328.832 116.569C328.832 110.248 323.704 95.2489 317.379 95.2489C311.054 95.2489 305.926 110.248 305.926 116.569C305.926 119.606 307.133 122.519 309.281 124.667C311.429 126.815 314.342 128.021 317.379 128.021C320.416 128.021 323.329 126.815 325.477 124.667C327.625 122.519 328.832 119.606 328.832 116.569H328.832Z" fill="#F2F2F2"/>
<path d="M317.737 142.176C317.642 142.176 317.551 142.139 317.484 142.072C317.417 142.004 317.379 141.913 317.379 141.818V109.916C317.379 109.821 317.417 109.73 317.484 109.662C317.551 109.595 317.642 109.558 317.737 109.558C317.832 109.558 317.923 109.595 317.99 109.662C318.057 109.73 318.095 109.821 318.095 109.916V141.818C318.095 141.913 318.057 142.004 317.99 142.072C317.923 142.139 317.832 142.176 317.737 142.176Z" fill="#CCCCCC"/>
<path d="M317.737 115.146C317.666 115.145 317.597 115.125 317.538 115.085C317.479 115.046 317.433 114.99 317.406 114.925C317.379 114.859 317.372 114.787 317.386 114.718C317.4 114.648 317.434 114.585 317.484 114.535L322.164 109.854C322.231 109.787 322.322 109.749 322.417 109.749C322.512 109.749 322.603 109.787 322.67 109.854C322.738 109.921 322.775 110.012 322.775 110.107C322.775 110.202 322.738 110.293 322.67 110.36L317.99 115.041C317.957 115.074 317.917 115.1 317.874 115.118C317.831 115.136 317.784 115.146 317.737 115.146V115.146Z" fill="#CCCCCC"/>
<path d="M199.274 120.542H191.4C191.163 120.542 190.935 120.447 190.768 120.28C190.6 120.112 190.506 119.884 190.505 119.647V111.774C190.506 111.536 190.6 111.309 190.768 111.141C190.935 110.973 191.163 110.879 191.4 110.879H199.274C199.511 110.879 199.738 110.973 199.906 111.141C200.074 111.309 200.168 111.536 200.169 111.774V119.647C200.168 119.884 200.074 120.112 199.906 120.28C199.738 120.447 199.511 120.542 199.274 120.542Z" fill="#17222B"/>
<path d="M326.872 141.538C326.873 139.909 327.521 138.348 328.673 137.197C329.825 136.046 331.387 135.399 333.015 135.399C334.644 135.399 336.206 136.046 337.358 137.197C338.51 138.348 339.158 139.909 339.159 141.538" fill="#F2F2F2"/>
<path d="M333.015 141.538C332.971 141.538 332.929 141.521 332.898 141.489C332.867 141.458 332.849 141.416 332.849 141.372V138.134C332.849 138.09 332.867 138.048 332.898 138.017C332.929 137.986 332.971 137.968 333.015 137.968C333.059 137.968 333.102 137.986 333.133 138.017C333.164 138.048 333.181 138.09 333.181 138.134V141.372C333.181 141.416 333.164 141.458 333.133 141.489C333.102 141.521 333.059 141.538 333.015 141.538V141.538Z" fill="#CCCCCC"/>
<path d="M333.015 140.425C332.976 140.425 332.937 140.411 332.907 140.385L330.915 138.675C330.898 138.661 330.884 138.644 330.874 138.624C330.864 138.605 330.858 138.584 330.856 138.562C330.854 138.54 330.857 138.518 330.864 138.497C330.871 138.476 330.881 138.457 330.896 138.44C330.91 138.424 330.927 138.41 330.947 138.4C330.967 138.39 330.988 138.384 331.01 138.383C331.032 138.381 331.054 138.384 331.074 138.391C331.095 138.398 331.114 138.409 331.131 138.423L333.123 140.133C333.149 140.155 333.168 140.185 333.176 140.218C333.185 140.251 333.183 140.285 333.171 140.317C333.159 140.349 333.138 140.376 333.11 140.396C333.082 140.415 333.049 140.425 333.015 140.425L333.015 140.425Z" fill="#CCCCCC"/>
<path d="M345.8 141.538C345.802 139.909 346.449 138.348 347.601 137.197C348.753 136.046 350.315 135.399 351.944 135.399C353.572 135.399 355.134 136.046 356.286 137.197C357.438 138.348 358.086 139.909 358.087 141.538" fill="#F2F2F2"/>
<path d="M351.944 141.538C351.9 141.538 351.857 141.521 351.826 141.489C351.795 141.458 351.778 141.416 351.778 141.372V138.134C351.778 138.09 351.795 138.048 351.826 138.017C351.857 137.986 351.9 137.968 351.944 137.968C351.988 137.968 352.03 137.986 352.061 138.017C352.092 138.048 352.11 138.09 352.11 138.134V141.372C352.11 141.416 352.092 141.458 352.061 141.489C352.03 141.521 351.988 141.538 351.944 141.538V141.538Z" fill="#CCCCCC"/>
<path d="M351.944 140.425C351.904 140.425 351.866 140.411 351.836 140.385L349.843 138.675C349.826 138.661 349.812 138.644 349.802 138.624C349.792 138.605 349.786 138.584 349.784 138.562C349.783 138.54 349.785 138.518 349.792 138.497C349.799 138.476 349.81 138.457 349.824 138.44C349.838 138.423 349.856 138.41 349.875 138.4C349.895 138.39 349.916 138.384 349.938 138.383C349.96 138.381 349.982 138.384 350.003 138.391C350.024 138.398 350.043 138.409 350.059 138.423L352.052 140.133C352.078 140.156 352.096 140.185 352.104 140.218C352.113 140.251 352.111 140.285 352.099 140.317C352.088 140.349 352.066 140.376 352.038 140.396C352.011 140.415 351.978 140.425 351.944 140.425V140.425Z" fill="#CCCCCC"/>
<g clip-path="url(#clip1_62_220)">
<path d="M349.768 125.433C349.768 122.601 348.234 119.943 341.311 119.943H310.726C303.8 119.943 302.266 122.601 302.266 125.433V131.271C302.266 131.286 302.274 131.294 302.274 131.309C302.244 131.71 302.233 132.115 302.233 132.52V145.9C302.233 146.579 302.776 147.123 303.455 147.123H348.545C349.22 147.123 349.768 146.579 349.768 145.9V132.52C349.768 132.16 349.756 131.804 349.734 131.448C349.753 131.391 349.768 131.335 349.768 131.268V125.433Z" fill="#FCC21B"/>
<path d="M301.055 125.455H351.264V136.877H301.055V125.455Z" fill="#F79329"/>
<path d="M316.625 146.804C316.625 149.286 314.611 151.293 312.132 151.293C309.65 151.293 307.636 149.283 307.636 146.804C307.636 144.318 309.65 142.315 312.132 142.315C314.611 142.315 316.625 144.321 316.625 146.804ZM343.329 146.804C343.329 149.286 341.315 151.293 338.836 151.293C336.354 151.293 334.34 149.283 334.34 146.804C334.34 144.318 336.354 142.315 338.836 142.315C341.319 142.315 343.329 144.321 343.329 146.804Z" fill="#2F2F2F"/>
<path d="M315.249 134.155C315.249 134.811 314.72 135.34 314.06 135.34H310.198C309.541 135.34 309.009 134.811 309.009 134.155V127.859C309.009 127.203 309.541 126.67 310.198 126.67H314.06C314.716 126.67 315.249 127.203 315.249 127.859V134.155ZM325.918 127.859C325.918 127.203 325.385 126.67 324.725 126.67H320.863C320.206 126.67 319.678 127.203 319.678 127.859V134.155C319.678 134.811 320.206 135.34 320.863 135.34H324.725C325.381 135.34 325.918 134.811 325.918 134.155V127.859V127.859ZM334.561 127.859C334.56 127.543 334.434 127.241 334.211 127.018C333.987 126.795 333.684 126.67 333.369 126.67H329.506C328.85 126.67 328.318 127.203 328.318 127.859V134.155C328.318 134.811 328.85 135.34 329.506 135.34H333.373C334.029 135.34 334.565 134.811 334.565 134.155V127.859H334.561ZM342.931 127.859C342.931 127.203 342.403 126.67 341.739 126.67H337.876C337.22 126.67 336.688 127.203 336.688 127.859V134.155C336.688 134.811 337.22 135.34 337.876 135.34H341.735C342.399 135.34 342.928 134.811 342.928 134.155V127.859H342.931Z" fill="white"/>
</g>
</g>
<defs>
<clipPath id="clip0_62_220">
<rect width="375" height="161.163" fill="white"/>
</clipPath>
<clipPath id="clip1_62_220">
<rect width="48" height="48" fill="white" transform="translate(302 106)"/>
</clipPath>
</defs>
</svg>
