<svg width="285" height="171" viewBox="0 0 285 171" fill="none" xmlns="http://www.w3.org/2000/svg">
<path d="M229.146 20.9738H222.515C222.021 20.9732 221.547 20.7683 221.197 20.4041C220.847 20.0398 220.651 19.5459 220.65 19.0308V3.05496C220.651 2.53982 220.847 2.04594 221.197 1.68168C221.547 1.31742 222.021 1.11253 222.515 1.11196H229.146C229.641 1.11253 230.115 1.31742 230.465 1.68168C230.814 2.04594 231.011 2.53982 231.011 3.05496V19.0308C231.011 19.5459 230.814 20.0398 230.465 20.4041C230.115 20.7683 229.641 20.9732 229.146 20.9738Z" fill="#E6E6E6"/>
<path d="M255.257 169.938H221.272C220.338 169.937 219.442 169.549 218.782 168.861C218.121 168.173 217.75 167.241 217.749 166.267V23.3486C217.75 22.3755 218.121 21.4427 218.782 20.7546C219.442 20.0666 220.338 19.6795 221.272 19.6785H255.257C256.191 19.6795 257.086 20.0666 257.747 20.7546C258.407 21.4427 258.779 22.3755 258.78 23.3486V166.267C258.779 167.241 258.407 168.173 257.747 168.861C257.086 169.549 256.191 169.937 255.257 169.938Z" fill="#E6E6E6"/>
<path d="M234.949 169.938H200.964C200.03 169.937 199.134 169.549 198.474 168.861C197.813 168.173 197.442 167.241 197.441 166.267V23.3486C197.442 22.3755 197.813 21.4427 198.474 20.7546C199.134 20.0666 200.03 19.6795 200.964 19.6785H234.949C235.883 19.6795 236.778 20.0666 237.438 20.7546C238.099 21.4427 238.47 22.3755 238.471 23.3486V166.267C238.47 167.241 238.099 168.173 237.438 168.861C236.778 169.549 235.883 169.937 234.949 169.938Z" fill="#F2F2F2"/>
<path d="M222.93 20.9738H216.298C215.804 20.9732 215.33 20.7683 214.98 20.4041C214.631 20.0398 214.434 19.5459 214.433 19.0308V3.05496C214.434 2.53982 214.631 2.04594 214.98 1.68168C215.33 1.31742 215.804 1.11253 216.298 1.11196H222.93C223.424 1.11253 223.898 1.31742 224.248 1.68168C224.597 2.04594 224.794 2.53982 224.795 3.05496V19.0308C224.794 19.5459 224.597 20.0398 224.248 20.4041C223.898 20.7683 223.424 20.9732 222.93 20.9738Z" fill="#F2F2F2"/>
<path d="M214.226 52.0619H206.351C206.077 52.0616 205.813 51.9477 205.619 51.7454C205.425 51.543 205.316 51.2686 205.315 50.9824V38.4608C205.316 38.1746 205.425 37.9003 205.619 37.6979C205.813 37.4955 206.077 37.3817 206.351 37.3814H214.226C214.501 37.3817 214.764 37.4955 214.958 37.6979C215.153 37.9003 215.262 38.1746 215.262 38.4608V50.9824C215.262 51.2686 215.153 51.543 214.958 51.7454C214.764 51.9477 214.501 52.0616 214.226 52.0619Z" fill="white"/>
<path d="M229.561 52.0619H221.686C221.412 52.0616 221.148 51.9477 220.954 51.7454C220.76 51.543 220.65 51.2686 220.65 50.9824V38.4608C220.65 38.1746 220.76 37.9003 220.954 37.6979C221.148 37.4955 221.412 37.3817 221.686 37.3814H229.561C229.835 37.3817 230.099 37.4955 230.293 37.6979C230.487 37.9003 230.597 38.1746 230.597 38.4608V50.9824C230.597 51.2686 230.487 51.543 230.293 51.7454C230.099 51.9477 229.835 52.0616 229.561 52.0619Z" fill="white"/>
<path d="M214.226 74.9462H206.351C206.077 74.9459 205.813 74.832 205.619 74.6297C205.425 74.4273 205.316 74.1529 205.315 73.8667V61.3451C205.316 61.0589 205.425 60.7846 205.619 60.5822C205.813 60.3798 206.077 60.266 206.351 60.2657H214.226C214.501 60.266 214.764 60.3798 214.958 60.5822C215.153 60.7846 215.262 61.0589 215.262 61.3451V73.8667C215.262 74.1529 215.153 74.4273 214.958 74.6297C214.764 74.832 214.501 74.9459 214.226 74.9462Z" fill="white"/>
<path d="M229.561 74.9462H221.686C221.412 74.9459 221.148 74.832 220.954 74.6297C220.76 74.4273 220.65 74.1529 220.65 73.8667V61.3451C220.65 61.0589 220.76 60.7846 220.954 60.5822C221.148 60.3798 221.412 60.266 221.686 60.2657H229.561C229.835 60.266 230.099 60.3798 230.293 60.5822C230.487 60.7846 230.597 61.0589 230.597 61.3451V73.8667C230.597 74.1529 230.487 74.4273 230.293 74.6297C230.099 74.832 229.835 74.9459 229.561 74.9462Z" fill="white"/>
<path d="M214.226 97.8305H206.351C206.077 97.8302 205.813 97.7163 205.619 97.514C205.425 97.3116 205.316 97.0372 205.315 96.751V84.2294C205.316 83.9432 205.425 83.6689 205.619 83.4665C205.813 83.2641 206.077 83.1503 206.351 83.15H214.226C214.501 83.1503 214.764 83.2641 214.958 83.4665C215.153 83.6689 215.262 83.9432 215.262 84.2294V96.751C215.262 97.0372 215.153 97.3116 214.958 97.514C214.764 97.7163 214.501 97.8302 214.226 97.8305Z" fill="white"/>
<path d="M229.561 97.8305H221.686C221.412 97.8302 221.148 97.7163 220.954 97.514C220.76 97.3116 220.65 97.0372 220.65 96.751V84.2294C220.65 83.9432 220.76 83.6689 220.954 83.4665C221.148 83.2641 221.412 83.1503 221.686 83.15H229.561C229.835 83.1503 230.099 83.2641 230.293 83.4665C230.487 83.6689 230.597 83.9432 230.597 84.2294V96.751C230.597 97.0372 230.487 97.3116 230.293 97.514C230.099 97.7163 229.835 97.8302 229.561 97.8305Z" fill="white"/>
<path d="M214.226 120.715H206.351C206.077 120.714 205.813 120.601 205.619 120.398C205.425 120.196 205.316 119.922 205.315 119.635V107.114C205.316 106.828 205.425 106.553 205.619 106.351C205.813 106.148 206.077 106.035 206.351 106.034H214.226C214.501 106.035 214.764 106.148 214.958 106.351C215.153 106.553 215.262 106.828 215.262 107.114V119.635C215.262 119.922 215.153 120.196 214.958 120.398C214.764 120.601 214.501 120.714 214.226 120.715Z" fill="white"/>
<path d="M229.561 120.715H221.686C221.412 120.714 221.148 120.601 220.954 120.398C220.76 120.196 220.65 119.922 220.65 119.635V107.114C220.65 106.828 220.76 106.553 220.954 106.351C221.148 106.148 221.412 106.035 221.686 106.034H229.561C229.835 106.035 230.099 106.148 230.293 106.351C230.487 106.553 230.597 106.828 230.597 107.114V119.635C230.597 119.922 230.487 120.196 230.293 120.398C230.099 120.601 229.835 120.714 229.561 120.715Z" fill="white"/>
<path d="M214.226 143.599H206.351C206.077 143.599 205.813 143.485 205.619 143.283C205.425 143.08 205.316 142.806 205.315 142.52V129.998C205.316 129.712 205.425 129.437 205.619 129.235C205.813 129.033 206.077 128.919 206.351 128.919H214.226C214.501 128.919 214.764 129.033 214.958 129.235C215.153 129.437 215.262 129.712 215.262 129.998V142.52C215.262 142.806 215.153 143.08 214.958 143.283C214.764 143.485 214.501 143.599 214.226 143.599Z" fill="white"/>
<path d="M229.561 143.599H221.686C221.412 143.599 221.148 143.485 220.954 143.283C220.76 143.08 220.65 142.806 220.65 142.52V129.998C220.65 129.712 220.76 129.437 220.954 129.235C221.148 129.033 221.412 128.919 221.686 128.919H229.561C229.835 128.919 230.099 129.033 230.293 129.235C230.487 129.437 230.597 129.712 230.597 129.998V142.52C230.597 142.806 230.487 143.08 230.293 143.283C230.099 143.485 229.835 143.599 229.561 143.599Z" fill="white"/>
<path d="M149.052 20.0035H142.421C141.927 20.003 141.453 19.7981 141.103 19.4338C140.753 19.0695 140.557 18.5757 140.556 18.0605V2.0847C140.557 1.56956 140.753 1.07568 141.103 0.711421C141.453 0.34716 141.927 0.142265 142.421 0.141693H149.052C149.547 0.142265 150.021 0.34716 150.371 0.711421C150.72 1.07568 150.917 1.56956 150.917 2.0847V18.0605C150.917 18.5757 150.72 19.0695 150.371 19.4338C150.021 19.7981 149.547 20.003 149.052 20.0035Z" fill="#E6E6E6"/>
<path d="M175.163 168.967H141.178C140.244 168.966 139.348 168.579 138.688 167.891C138.028 167.203 137.656 166.27 137.655 165.297V22.3783C137.656 21.4053 138.028 20.4724 138.688 19.7844C139.348 19.0963 140.244 18.7093 141.178 18.7082H175.163C176.097 18.7093 176.992 19.0963 177.653 19.7843C178.313 20.4724 178.685 21.4053 178.686 22.3783V165.297C178.685 166.27 178.313 167.203 177.653 167.891C176.992 168.579 176.097 168.966 175.163 168.967Z" fill="#E6E6E6"/>
<path d="M154.855 168.967H120.87C119.936 168.966 119.04 168.579 118.38 167.891C117.719 167.203 117.348 166.27 117.347 165.297V22.3783C117.348 21.4053 117.719 20.4724 118.38 19.7844C119.04 19.0963 119.936 18.7093 120.87 18.7082H154.855C155.789 18.7093 156.684 19.0963 157.345 19.7844C158.005 20.4724 158.377 21.4053 158.378 22.3783V165.297C158.377 166.27 158.005 167.203 157.345 167.891C156.684 168.579 155.789 168.966 154.855 168.967Z" fill="#F2F2F2"/>
<path d="M142.836 20.0035H136.204C135.71 20.003 135.236 19.7981 134.886 19.4338C134.537 19.0695 134.34 18.5757 134.339 18.0605V2.0847C134.34 1.56956 134.537 1.07568 134.886 0.711421C135.236 0.34716 135.71 0.142265 136.204 0.141693H142.836C143.33 0.142265 143.804 0.34716 144.154 0.711421C144.503 1.07568 144.7 1.56956 144.701 2.0847V18.0605C144.7 18.5757 144.503 19.0695 144.154 19.4338C143.804 19.7981 143.33 20.003 142.836 20.0035Z" fill="#F2F2F2"/>
<path d="M134.132 51.0916H126.258C125.983 51.0913 125.719 50.9775 125.525 50.7751C125.331 50.5727 125.222 50.2984 125.221 50.0122V37.4906C125.222 37.2044 125.331 36.93 125.525 36.7276C125.719 36.5253 125.983 36.4115 126.258 36.4111H134.132C134.407 36.4115 134.67 36.5253 134.864 36.7276C135.059 36.93 135.168 37.2044 135.168 37.4906V50.0122C135.168 50.2984 135.059 50.5727 134.864 50.7751C134.67 50.9775 134.407 51.0913 134.132 51.0916Z" fill="white"/>
<path d="M149.467 51.0916H141.592C141.318 51.0913 141.054 50.9775 140.86 50.7751C140.666 50.5727 140.556 50.2984 140.556 50.0122V37.4906C140.556 37.2044 140.666 36.93 140.86 36.7276C141.054 36.5253 141.318 36.4115 141.592 36.4111H149.467C149.742 36.4115 150.005 36.5253 150.199 36.7276C150.393 36.93 150.503 37.2044 150.503 37.4906V50.0122C150.503 50.2984 150.393 50.5727 150.199 50.7751C150.005 50.9775 149.742 51.0913 149.467 51.0916Z" fill="white"/>
<path d="M134.132 73.9759H126.258C125.983 73.9756 125.719 73.8618 125.525 73.6594C125.331 73.457 125.222 73.1827 125.221 72.8965V60.3749C125.222 60.0887 125.331 59.8143 125.525 59.612C125.719 59.4096 125.983 59.2958 126.258 59.2954H134.132C134.407 59.2958 134.67 59.4096 134.864 59.612C135.059 59.8143 135.168 60.0887 135.168 60.3749V72.8965C135.168 73.1827 135.059 73.457 134.864 73.6594C134.67 73.8618 134.407 73.9756 134.132 73.9759Z" fill="white"/>
<path d="M149.467 73.9759H141.592C141.318 73.9756 141.054 73.8618 140.86 73.6594C140.666 73.457 140.556 73.1827 140.556 72.8965V60.3749C140.556 60.0887 140.666 59.8143 140.86 59.612C141.054 59.4096 141.318 59.2958 141.592 59.2954H149.467C149.742 59.2958 150.005 59.4096 150.199 59.612C150.393 59.8143 150.503 60.0887 150.503 60.3749V72.8965C150.503 73.1827 150.393 73.457 150.199 73.6594C150.005 73.8618 149.742 73.9756 149.467 73.9759Z" fill="white"/>
<path d="M134.132 96.8602H126.258C125.983 96.8599 125.719 96.7461 125.525 96.5437C125.331 96.3413 125.222 96.067 125.221 95.7808V83.2592C125.222 82.973 125.331 82.6986 125.525 82.4962C125.719 82.2939 125.983 82.1801 126.258 82.1797H134.132C134.407 82.1801 134.67 82.2939 134.864 82.4962C135.059 82.6986 135.168 82.973 135.168 83.2592V95.7808C135.168 96.067 135.059 96.3413 134.864 96.5437C134.67 96.7461 134.407 96.8599 134.132 96.8602Z" fill="white"/>
<path d="M149.467 96.8602H141.592C141.318 96.8599 141.054 96.7461 140.86 96.5437C140.666 96.3413 140.556 96.067 140.556 95.7808V83.2592C140.556 82.973 140.666 82.6986 140.86 82.4962C141.054 82.2939 141.318 82.1801 141.592 82.1797H149.467C149.742 82.1801 150.005 82.2939 150.199 82.4962C150.393 82.6986 150.503 82.973 150.503 83.2592V95.7808C150.503 96.067 150.393 96.3413 150.199 96.5437C150.005 96.7461 149.742 96.8599 149.467 96.8602Z" fill="white"/>
<path d="M134.132 119.745H126.258C125.983 119.744 125.719 119.63 125.525 119.428C125.331 119.226 125.222 118.951 125.221 118.665V106.143C125.222 105.857 125.331 105.583 125.525 105.381C125.719 105.178 125.983 105.064 126.258 105.064H134.132C134.407 105.064 134.67 105.178 134.864 105.381C135.059 105.583 135.168 105.857 135.168 106.143V118.665C135.168 118.951 135.059 119.226 134.864 119.428C134.67 119.63 134.407 119.744 134.132 119.745Z" fill="white"/>
<path d="M149.467 119.745H141.592C141.318 119.744 141.054 119.63 140.86 119.428C140.666 119.226 140.556 118.951 140.556 118.665V106.143C140.556 105.857 140.666 105.583 140.86 105.381C141.054 105.178 141.318 105.064 141.592 105.064H149.467C149.742 105.064 150.005 105.178 150.199 105.381C150.393 105.583 150.503 105.857 150.503 106.143V118.665C150.503 118.951 150.393 119.226 150.199 119.428C150.005 119.63 149.742 119.744 149.467 119.745Z" fill="white"/>
<path d="M134.132 142.629H126.258C125.983 142.628 125.719 142.515 125.525 142.312C125.331 142.11 125.222 141.836 125.221 141.549V129.028C125.222 128.742 125.331 128.467 125.525 128.265C125.719 128.062 125.983 127.949 126.258 127.948H134.132C134.407 127.949 134.67 128.062 134.864 128.265C135.059 128.467 135.168 128.742 135.168 129.028V141.549C135.168 141.836 135.059 142.11 134.864 142.312C134.67 142.515 134.407 142.628 134.132 142.629Z" fill="white"/>
<path d="M149.467 142.629H141.592C141.318 142.628 141.054 142.515 140.86 142.312C140.666 142.11 140.556 141.836 140.556 141.549V129.028C140.556 128.742 140.666 128.467 140.86 128.265C141.054 128.062 141.318 127.949 141.592 127.948H149.467C149.742 127.949 150.005 128.062 150.199 128.265C150.393 128.467 150.503 128.742 150.503 129.028V141.549C150.503 141.836 150.393 142.11 150.199 142.312C150.005 142.515 149.742 142.628 149.467 142.629Z" fill="white"/>
<path d="M231.594 103.902H225.663C225.221 103.901 224.797 103.718 224.484 103.392C224.171 103.066 223.996 102.625 223.995 102.164V94.0544C223.996 93.5937 224.171 93.152 224.484 92.8262C224.797 92.5004 225.221 92.3171 225.663 92.3166H231.594C232.036 92.3171 232.46 92.5004 232.773 92.8262C233.086 93.152 233.261 93.5937 233.262 94.0544V102.164C233.261 102.625 233.086 103.067 232.773 103.392C232.46 103.718 232.036 103.901 231.594 103.902Z" fill="#E6E6E6"/>
<path d="M281.635 169.938H251.24C250.405 169.937 249.604 169.59 249.013 168.975C248.422 168.36 248.09 167.525 248.089 166.655V105.253C248.09 104.383 248.422 103.549 249.013 102.933C249.604 102.318 250.405 101.972 251.24 101.971H281.635C282.471 101.972 283.272 102.318 283.862 102.933C284.453 103.549 284.785 104.383 284.786 105.253V166.655C284.785 167.525 284.453 168.36 283.862 168.975C283.272 169.59 282.471 169.937 281.635 169.938Z" fill="#E6E6E6"/>
<path d="M263.472 169.938H210.836C210.001 169.937 209.2 169.59 208.609 168.975C208.019 168.36 207.686 167.525 207.685 166.655V105.253C207.686 104.383 208.019 103.549 208.609 102.933C209.2 102.318 210.001 101.972 210.836 101.971H263.472C264.308 101.972 265.108 102.318 265.699 102.933C266.29 103.549 266.622 104.383 266.623 105.253V166.655C266.622 167.525 266.29 168.36 265.699 168.975C265.108 169.59 264.308 169.937 263.472 169.938Z" fill="#F2F2F2"/>
<path d="M226.034 103.902H220.103C219.661 103.901 219.237 103.718 218.924 103.392C218.611 103.066 218.435 102.625 218.435 102.164V94.0544C218.435 93.5937 218.611 93.152 218.924 92.8262C219.237 92.5004 219.661 92.3171 220.103 92.3166H226.034C226.476 92.3171 226.9 92.5004 227.213 92.8262C227.525 93.152 227.701 93.5937 227.702 94.0544V102.164C227.701 102.625 227.525 103.067 227.213 103.392C226.9 103.718 226.476 103.901 226.034 103.902Z" fill="#F2F2F2"/>
<path d="M233.818 132.286H226.775C226.529 132.285 226.294 132.184 226.12 132.003C225.946 131.822 225.849 131.576 225.848 131.32V120.121C225.849 119.865 225.946 119.62 226.12 119.439C226.294 119.258 226.529 119.156 226.775 119.156H233.818C234.064 119.156 234.299 119.258 234.473 119.439C234.647 119.62 234.744 119.865 234.745 120.121V131.32C234.744 131.576 234.647 131.822 234.473 132.003C234.299 132.184 234.064 132.285 233.818 132.286Z" fill="white"/>
<path d="M247.533 132.286H240.49C240.244 132.285 240.009 132.184 239.835 132.003C239.661 131.822 239.564 131.576 239.563 131.32V120.121C239.564 119.865 239.661 119.62 239.835 119.439C240.009 119.258 240.244 119.156 240.49 119.156H247.533C247.779 119.156 248.014 119.258 248.188 119.439C248.362 119.62 248.459 119.865 248.46 120.121V131.32C248.459 131.576 248.362 131.822 248.188 132.003C248.014 132.184 247.779 132.285 247.533 132.286Z" fill="white"/>
<path d="M233.818 152.753H226.775C226.529 152.753 226.294 152.651 226.12 152.47C225.946 152.289 225.849 152.043 225.848 151.787V140.588C225.849 140.332 225.946 140.087 226.12 139.906C226.294 139.725 226.529 139.623 226.775 139.623H233.818C234.064 139.623 234.299 139.725 234.473 139.906C234.647 140.087 234.744 140.332 234.745 140.588V151.787C234.744 152.043 234.647 152.289 234.473 152.47C234.299 152.651 234.064 152.753 233.818 152.753Z" fill="white"/>
<path d="M247.533 152.753H240.49C240.244 152.753 240.009 152.651 239.835 152.47C239.661 152.289 239.564 152.043 239.563 151.787V140.588C239.564 140.332 239.661 140.087 239.835 139.906C240.009 139.725 240.244 139.623 240.49 139.623H247.533C247.779 139.623 248.014 139.725 248.188 139.906C248.362 140.087 248.459 140.332 248.46 140.588V151.787C248.459 152.043 248.362 152.289 248.188 152.47C248.014 152.651 247.779 152.753 247.533 152.753Z" fill="white"/>
<path d="M200.18 115.036C200.18 101.396 189.56 69.0303 176.459 69.0303C163.358 69.0303 152.737 101.396 152.737 115.036C152.737 121.59 155.236 127.876 159.685 132.511C164.134 137.145 170.167 139.749 176.459 139.749C182.75 139.749 188.784 137.145 193.232 132.511C197.681 127.876 200.18 121.59 200.18 115.036H200.18Z" fill="#F2F2F2"/>
<path d="M177.2 170.293C177.003 170.293 176.815 170.212 176.676 170.067C176.537 169.922 176.459 169.726 176.459 169.521V100.679C176.459 100.474 176.537 100.278 176.676 100.133C176.815 99.9879 177.003 99.9065 177.2 99.9065C177.396 99.9065 177.585 99.9879 177.724 100.133C177.863 100.278 177.941 100.474 177.941 100.679V169.521C177.941 169.726 177.863 169.922 177.724 170.067C177.585 170.212 177.396 170.293 177.2 170.293Z" fill="#CCCCCC"/>
<path d="M177.2 111.964C177.053 111.964 176.91 111.919 176.788 111.834C176.666 111.749 176.571 111.629 176.515 111.488C176.459 111.347 176.444 111.191 176.473 111.042C176.502 110.892 176.572 110.754 176.676 110.646L186.37 100.546C186.509 100.401 186.698 100.32 186.894 100.32C187.091 100.32 187.279 100.401 187.418 100.546C187.557 100.691 187.636 100.887 187.636 101.092C187.636 101.297 187.557 101.493 187.418 101.638L177.724 111.738C177.655 111.81 177.574 111.867 177.484 111.906C177.394 111.945 177.297 111.965 177.2 111.964Z" fill="#CCCCCC"/>
<path d="M47.4428 115.036C47.4428 101.396 36.8224 69.0303 23.7214 69.0303C10.6204 69.0303 0 101.396 0 115.036C0 121.59 2.49924 127.876 6.94787 132.511C11.3965 137.145 17.4301 139.749 23.7215 139.749C30.0128 139.749 36.0464 137.145 40.4951 132.511C44.9437 127.876 47.4429 121.59 47.4429 115.036H47.4428Z" fill="#F2F2F2"/>
<path d="M24.4627 170.293C24.2661 170.293 24.0775 170.212 23.9385 170.067C23.7995 169.922 23.7214 169.726 23.7214 169.521V100.679C23.7214 100.474 23.7995 100.278 23.9385 100.133C24.0775 99.9879 24.2661 99.9065 24.4627 99.9065C24.6593 99.9065 24.8478 99.9879 24.9868 100.133C25.1259 100.278 25.204 100.474 25.204 100.679V169.521C25.204 169.726 25.1259 169.922 24.9868 170.067C24.8478 170.212 24.6593 170.293 24.4627 170.293Z" fill="#CCCCCC"/>
<path d="M24.4627 111.964C24.3161 111.964 24.1728 111.919 24.0509 111.834C23.9291 111.749 23.8341 111.629 23.778 111.488C23.7219 111.347 23.7072 111.191 23.7358 111.042C23.7644 110.892 23.8349 110.754 23.9386 110.646L33.633 100.546C33.772 100.401 33.9605 100.32 34.1571 100.32C34.3537 100.32 34.5422 100.401 34.6812 100.546C34.8202 100.691 34.8983 100.887 34.8983 101.092C34.8983 101.297 34.8202 101.493 34.6812 101.638L24.9869 111.738C24.9181 111.81 24.8364 111.867 24.7464 111.906C24.6565 111.945 24.5601 111.965 24.4627 111.964Z" fill="#CCCCCC"/>
<path d="M97.1078 146.038C97.3044 146.038 97.493 145.956 97.632 145.812C97.771 145.667 97.8491 145.47 97.8491 145.265C97.8491 145.061 97.771 144.864 97.632 144.719C97.493 144.575 97.3044 144.493 97.1078 144.493H90.0655V141.404H97.1078C97.3044 141.404 97.493 141.323 97.632 141.178C97.771 141.033 97.8491 140.837 97.8491 140.632C97.8491 140.427 97.771 140.231 97.632 140.086C97.493 139.941 97.3044 139.859 97.1078 139.859H37.0629C36.8663 139.859 36.6778 139.941 36.5388 140.086C36.3998 140.231 36.3217 140.427 36.3217 140.632C36.3217 140.837 36.3998 141.033 36.5388 141.178C36.6778 141.323 36.8663 141.404 37.0629 141.404H44.1052V144.493H37.0629C36.8663 144.493 36.6778 144.575 36.5388 144.719C36.3998 144.864 36.3217 145.061 36.3217 145.265C36.3217 145.47 36.3998 145.667 36.5388 145.812C36.6778 145.956 36.8663 146.038 37.0629 146.038H44.1052V149.127H37.0629C36.8663 149.127 36.6778 149.208 36.5388 149.353C36.3998 149.498 36.3217 149.694 36.3217 149.899C36.3217 150.104 36.3998 150.301 36.5388 150.445C36.6778 150.59 36.8663 150.672 37.0629 150.672H44.1052V153.761H37.8042C37.411 153.761 37.034 153.923 36.7559 154.213C36.4779 154.503 36.3217 154.896 36.3217 155.305C36.3217 155.715 36.4779 156.108 36.7559 156.397C37.034 156.687 37.411 156.85 37.8042 156.85H43.8026C43.7589 156.974 43.7359 157.104 43.7346 157.236V168.048C43.7346 168.355 43.8518 168.65 44.0603 168.867C44.2688 169.084 44.5516 169.206 44.8465 169.206C45.1414 169.206 45.4243 169.084 45.6328 168.867C45.8413 168.65 45.9585 168.355 45.9585 168.048V157.236C45.9572 157.104 45.9342 156.974 45.8905 156.85H88.2803C88.2366 156.974 88.2135 157.104 88.2123 157.236V168.048C88.2123 168.355 88.3294 168.65 88.538 168.867C88.7465 169.084 89.0293 169.206 89.3242 169.206C89.6191 169.206 89.9019 169.084 90.1105 168.867C90.319 168.65 90.4361 168.355 90.4361 168.048V157.236C90.4348 157.104 90.4119 156.974 90.3681 156.85H96.3665C96.7597 156.85 97.1368 156.687 97.4149 156.397C97.6929 156.108 97.8491 155.715 97.8491 155.305C97.8491 154.896 97.6929 154.503 97.4149 154.213C97.1368 153.923 96.7597 153.761 96.3665 153.761H90.0655V150.672H97.1078C97.3044 150.672 97.493 150.59 97.632 150.445C97.771 150.301 97.8491 150.104 97.8491 149.899C97.8491 149.694 97.771 149.498 97.632 149.353C97.493 149.208 97.3044 149.127 97.1078 149.127H90.0655V146.038H97.1078ZM45.5878 141.404H88.5829V144.493H45.5878V141.404ZM88.5829 153.761H45.5878V150.672H88.5829V153.761ZM88.5829 149.127H45.5878V146.038H88.5829V149.127Z" fill="#A4A4A4"/>
</svg>
