<svg width="24" height="24" viewBox="0 0 24 24" fill="none" xmlns="http://www.w3.org/2000/svg">
<path d="M20.8748 22C18.2748 22 15.8292 21.5083 13.5378 20.525C11.2458 19.5417 9.24583 18.196 7.53783 16.488C5.82917 14.7793 4.47917 12.7793 3.48783 10.488C2.49583 8.196 1.99983 5.74167 1.99983 3.125C1.98317 2.825 2.08317 2.56233 2.29983 2.337C2.5165 2.11233 2.78317 2 3.09983 2H6.99983C7.29983 2 7.55817 2.11233 7.77483 2.337C7.9915 2.56233 8.09983 2.83333 8.09983 3.15C8.09983 3.88333 8.14983 4.575 8.24983 5.225C8.34983 5.875 8.50817 6.49167 8.72483 7.075C8.80817 7.25833 8.82483 7.44567 8.77483 7.637C8.72483 7.829 8.62483 8.00833 8.47483 8.175L5.97483 10.675C6.6915 12.1417 7.70817 13.5333 9.02483 14.85C10.3415 16.1667 11.7582 17.2167 13.2748 18L15.7748 15.5C15.9248 15.35 16.0998 15.25 16.2998 15.2C16.4998 15.15 16.6998 15.1667 16.8998 15.25C17.5165 15.45 18.1538 15.604 18.8118 15.712C19.4705 15.8207 20.1498 15.875 20.8498 15.875C21.1665 15.875 21.4375 15.9917 21.6628 16.225C21.8875 16.4583 21.9998 16.7417 21.9998 17.075V20.9C21.9998 21.2 21.8915 21.4583 21.6748 21.675C21.4582 21.8917 21.1915 22 20.8748 22V22ZM19.9998 12C19.9998 9.76667 19.2248 7.875 17.6748 6.325C16.1248 4.775 14.2332 4 11.9998 4V2C13.3832 2 14.6832 2.26233 15.8998 2.787C17.1165 3.31233 18.1748 4.025 19.0748 4.925C19.9748 5.825 20.6872 6.88333 21.2118 8.1C21.7372 9.31667 21.9998 10.6167 21.9998 12H19.9998ZM15.9998 12C15.9998 10.9 15.6082 9.95833 14.8248 9.175C14.0415 8.39167 13.0998 8 11.9998 8V6C13.6665 6 15.0832 6.58333 16.2498 7.75C17.4165 8.91667 17.9998 10.3333 17.9998 12H15.9998Z" fill="white"/>
</svg>
