<svg width="32" height="36" viewBox="0 0 32 36" fill="none" xmlns="http://www.w3.org/2000/svg">
<path fill-rule="evenodd" clip-rule="evenodd" d="M0 35.1C0 34.8613 0.105357 34.6324 0.292893 34.4636C0.48043 34.2948 0.734783 34.2 1 34.2H31C31.2652 34.2 31.5196 34.2948 31.7071 34.4636C31.8946 34.6324 32 34.8613 32 35.1C32 35.3387 31.8946 35.5676 31.7071 35.7364C31.5196 35.9052 31.2652 36 31 36H1C0.734783 36 0.48043 35.9052 0.292893 35.7364C0.105357 35.5676 0 35.3387 0 35.1Z" fill="#3FA2F7"/>
<path fill-rule="evenodd" clip-rule="evenodd" d="M4 16.2V34.2H9V16.2H4ZM3 14.4C2.73478 14.4 2.48043 14.4948 2.29289 14.6636C2.10536 14.8324 2 15.0613 2 15.3V35.1C2 35.3387 2.10536 35.5676 2.29289 35.7364C2.48043 35.9052 2.73478 36 3 36H10C10.2652 36 10.5196 35.9052 10.7071 35.7364C10.8946 35.5676 11 35.3387 11 35.1V15.3C11 15.0613 10.8946 14.8324 10.7071 14.6636C10.5196 14.4948 10.2652 14.4 10 14.4H3Z" fill="#3FA2F7"/>
<path fill-rule="evenodd" clip-rule="evenodd" d="M9 0L25 5.4V18H23V6.6474L11 2.5974V34.2H19C19 34.4387 19.1054 34.6676 19.2929 34.8364C19.4804 35.0052 19.7348 35.1 20 35.1H25V36H9V0Z" fill="#3FA2F7"/>
<path d="M12 8.1H14V9.9H12V8.1ZM16 8.1H18V9.9H16V8.1ZM20 8.1H22V9.9H20V8.1ZM12 11.7H14V13.5H12V11.7ZM16 11.7H18V13.5H16V11.7ZM20 11.7H22V13.5H20V11.7ZM12 15.3H14V17.1H12V15.3ZM16 15.3H18V17.1H16V15.3ZM20 15.3H22V17.1H20V15.3ZM12 18.9H14V20.7H12V18.9ZM16 18.9H18V20.7H16V18.9ZM12 22.5H14V24.3H12V22.5ZM16 22.5H18V24.3H16V22.5ZM12 26.1H14V27.9H12V26.1ZM16 26.1H18V27.9H16V26.1ZM12 29.7H14V31.5H12V29.7ZM16 29.7H18V31.5H16V29.7Z" fill="#3FA2F7"/>
<path fill-rule="evenodd" clip-rule="evenodd" d="M21 19.8V34.2H28V19.8H21ZM20 18C19.7348 18 19.4804 18.0948 19.2929 18.2636C19.1054 18.4324 19 18.6613 19 18.9V35.1C19 35.3387 19.1054 35.5676 19.2929 35.7364C19.4804 35.9052 19.7348 36 20 36H29C29.2652 36 29.5196 35.9052 29.7071 35.7364C29.8946 35.5676 30 35.3387 30 35.1V18.9C30 18.6613 29.8946 18.4324 29.7071 18.2636C29.5196 18.0948 29.2652 18 29 18H20Z" fill="#3FA2F7"/>
<path fill-rule="evenodd" clip-rule="evenodd" d="M26 23.4H23V21.6H26V23.4ZM26 27H23V25.2H26V27ZM26 30.6H23V28.8H26V30.6ZM26 34.2H23V32.4H26V34.2ZM7 8.1V16.2H5V8.1H7Z" fill="#3FA2F7"/>
</svg>
