<svg width="125" height="36" viewBox="0 0 125 36" fill="none" xmlns="http://www.w3.org/2000/svg">
<path d="M40.5039 30V29.1445C41.0117 29.043 41.4062 28.9258 41.6875 28.793C41.9688 28.6602 42.1094 28.5391 42.1094 28.4297V16.4414L40.5039 16.6641L40.3516 15.5859C41.125 15.3906 42.1367 15.2266 43.3867 15.0938C44.6367 14.9531 45.7656 14.8828 46.7734 14.8828C48.3594 14.8828 49.7148 15.168 50.8398 15.7383C51.9727 16.3008 52.832 17.1211 53.418 18.1992C54.0117 19.2773 54.3086 20.5703 54.3086 22.0781C54.3086 23.9141 53.9609 25.4258 53.2656 26.6133C52.5703 27.8008 51.6875 28.6641 50.6172 29.2031C49.5469 29.7344 48.4258 30 47.2539 30H40.5039ZM45.0391 27.8438C45.0391 28.0156 45.0469 28.1367 45.0625 28.207C45.1094 28.3945 45.2578 28.5312 45.5078 28.6172C45.7578 28.7031 46.1953 28.7461 46.8203 28.7461C47.4766 28.7461 48.1406 28.5234 48.8125 28.0781C49.4844 27.625 50.043 26.9336 50.4883 26.0039C50.9414 25.0664 51.168 23.9102 51.168 22.5352C51.168 20.457 50.7188 18.8711 49.8203 17.7773C48.9297 16.6758 47.6328 16.125 45.9297 16.125C45.7422 16.125 45.4453 16.1328 45.0391 16.1484V27.8438ZM68.5703 29.3086C68.4844 29.6055 68.2773 29.832 67.9492 29.9883C67.6211 30.1445 67.2656 30.2656 66.8828 30.3516L63.8945 23.5078L61.5156 29.3086C61.4141 29.6133 61.2031 29.8438 60.8828 30C60.5703 30.1484 60.2305 30.2656 59.8633 30.3516L56.7109 20.6836C56.6641 20.5352 56.5312 20.3984 56.3125 20.2734C56.1016 20.1484 55.8086 20.043 55.4336 19.957V19.1016H60.7422V19.957C60.2422 20.0117 59.8945 20.0859 59.6992 20.1797C59.5117 20.2734 59.418 20.3828 59.418 20.5078C59.418 20.5625 59.4297 20.6211 59.4531 20.6836L61.2109 26.2148L64.0117 19.1016H64.9141L67.8555 26.2148L69.543 20.6836C69.5742 20.5742 69.5898 20.5039 69.5898 20.4727C69.5898 20.3555 69.5117 20.2578 69.3555 20.1797C69.207 20.1016 68.9297 20.0273 68.5234 19.957V19.1016H72.332V19.957C71.9102 20.0664 71.625 20.168 71.4766 20.2617C71.3281 20.3555 71.2227 20.4961 71.1602 20.6836L68.5703 29.3086ZM76.1758 24.5156C76.1992 25.2734 76.3281 25.9453 76.5625 26.5312C76.8047 27.1094 77.1406 27.5625 77.5703 27.8906C78.0078 28.2188 78.5234 28.3828 79.1172 28.3828C79.4844 28.3828 79.8203 28.3516 80.125 28.2891C80.4297 28.2188 80.7852 28.082 81.1914 27.8789C81.5977 27.6758 82.0938 27.3711 82.6797 26.9648C82.7656 27.0117 82.8711 27.1211 82.9961 27.293C83.1211 27.457 83.2188 27.5977 83.2891 27.7148C82.5703 28.4414 81.9414 28.9922 81.4023 29.3672C80.8711 29.7422 80.3555 30 79.8555 30.1406C79.3633 30.2812 78.7891 30.3516 78.1328 30.3516C77.25 30.3516 76.4375 30.1211 75.6953 29.6602C74.9531 29.1914 74.3633 28.5352 73.9258 27.6914C73.4883 26.8477 73.2695 25.8906 73.2695 24.8203C73.2695 23.7656 73.4727 22.8203 73.8789 21.9844C74.2852 21.1406 74.8867 20.4297 75.6836 19.8516C76.1133 19.5312 76.6172 19.2695 77.1953 19.0664C77.7734 18.8555 78.3477 18.75 78.918 18.75C79.9023 18.75 80.7266 18.9688 81.3906 19.4062C82.0547 19.8438 82.5469 20.4258 82.8672 21.1523C83.1953 21.8789 83.3594 22.6797 83.3594 23.5547C83.2266 23.7031 82.9922 23.8711 82.6562 24.0586C82.3203 24.2461 82.0078 24.3984 81.7188 24.5156H76.1758ZM80.1133 23.2031C80.2852 23.2031 80.4023 23.1758 80.4648 23.1211C80.5273 23.0586 80.5586 22.9453 80.5586 22.7812C80.5586 22.4141 80.4922 22.0312 80.3594 21.6328C80.2266 21.2266 80.0039 20.8789 79.6914 20.5898C79.3867 20.3008 78.9883 20.1562 78.4961 20.1562C77.793 20.1562 77.2578 20.418 76.8906 20.9414C76.5312 21.4648 76.3047 22.2188 76.2109 23.2031H80.1133ZM84.7539 29.1445C85.3867 29.0352 85.8203 28.9258 86.0547 28.8164C86.2969 28.6992 86.418 28.5703 86.418 28.4297V15.1641C86.418 14.6875 86.3789 14.3516 86.3008 14.1562C86.2305 13.9609 86.1016 13.8359 85.9141 13.7812C85.7344 13.7188 85.3867 13.6562 84.8711 13.5938V12.7734C85.7227 12.6484 86.4336 12.5195 87.0039 12.3867C87.5742 12.2539 88.1484 12.0703 88.7266 11.8359L89.2305 12.3164V28.4297C89.2305 28.5625 89.3594 28.6914 89.6172 28.8164C89.8828 28.9336 90.3125 29.043 90.9062 29.1445V30H84.7539V29.1445ZM91.9727 29.1445C92.6055 29.0352 93.0391 28.9258 93.2734 28.8164C93.5156 28.6992 93.6367 28.5703 93.6367 28.4297V15.1641C93.6367 14.6875 93.5977 14.3516 93.5195 14.1562C93.4492 13.9609 93.3203 13.8359 93.1328 13.7812C92.9531 13.7188 92.6055 13.6562 92.0898 13.5938V12.7734C92.9414 12.6484 93.6523 12.5195 94.2227 12.3867C94.793 12.2539 95.3672 12.0703 95.9453 11.8359L96.4492 12.3164V28.4297C96.4492 28.5625 96.5781 28.6914 96.8359 28.8164C97.1016 28.9336 97.5312 29.043 98.125 29.1445V30H91.9727V29.1445ZM102.238 24.5156C102.262 25.2734 102.391 25.9453 102.625 26.5312C102.867 27.1094 103.203 27.5625 103.633 27.8906C104.07 28.2188 104.586 28.3828 105.18 28.3828C105.547 28.3828 105.883 28.3516 106.188 28.2891C106.492 28.2188 106.848 28.082 107.254 27.8789C107.66 27.6758 108.156 27.3711 108.742 26.9648C108.828 27.0117 108.934 27.1211 109.059 27.293C109.184 27.457 109.281 27.5977 109.352 27.7148C108.633 28.4414 108.004 28.9922 107.465 29.3672C106.934 29.7422 106.418 30 105.918 30.1406C105.426 30.2812 104.852 30.3516 104.195 30.3516C103.312 30.3516 102.5 30.1211 101.758 29.6602C101.016 29.1914 100.426 28.5352 99.9883 27.6914C99.5508 26.8477 99.332 25.8906 99.332 24.8203C99.332 23.7656 99.5352 22.8203 99.9414 21.9844C100.348 21.1406 100.949 20.4297 101.746 19.8516C102.176 19.5312 102.68 19.2695 103.258 19.0664C103.836 18.8555 104.41 18.75 104.98 18.75C105.965 18.75 106.789 18.9688 107.453 19.4062C108.117 19.8438 108.609 20.4258 108.93 21.1523C109.258 21.8789 109.422 22.6797 109.422 23.5547C109.289 23.7031 109.055 23.8711 108.719 24.0586C108.383 24.2461 108.07 24.3984 107.781 24.5156H102.238ZM106.176 23.2031C106.348 23.2031 106.465 23.1758 106.527 23.1211C106.59 23.0586 106.621 22.9453 106.621 22.7812C106.621 22.4141 106.555 22.0312 106.422 21.6328C106.289 21.2266 106.066 20.8789 105.754 20.5898C105.449 20.3008 105.051 20.1562 104.559 20.1562C103.855 20.1562 103.32 20.418 102.953 20.9414C102.594 21.4648 102.367 22.2188 102.273 23.2031H106.176ZM118.832 23.2148C118.777 22.543 118.637 21.9922 118.41 21.5625C118.191 21.1328 117.898 20.918 117.531 20.918C116.641 20.918 115.836 21.7148 115.117 23.3086V28.4297C115.117 28.5547 115.289 28.6797 115.633 28.8047C115.977 28.9297 116.496 29.043 117.191 29.1445V30H110.758V29.1445C111.281 29.0273 111.668 28.9102 111.918 28.793C112.176 28.6758 112.305 28.5547 112.305 28.4297V22.2188C112.305 21.75 112.281 21.4062 112.234 21.1875C112.188 20.9688 112.121 20.8164 112.035 20.7305C111.926 20.6211 111.793 20.5469 111.637 20.5078C111.48 20.4688 111.188 20.4375 110.758 20.4141V19.5938C111.617 19.4609 112.285 19.3438 112.762 19.2422C113.238 19.1328 113.801 18.9688 114.449 18.75L114.941 19.2422L115.094 20.9414C115.539 20.3008 116.074 19.7773 116.699 19.3711C117.324 18.957 117.957 18.75 118.598 18.75C118.895 18.75 119.203 18.7969 119.523 18.8906C119.852 18.9766 120.16 19.1016 120.449 19.2656C120.496 19.2969 120.52 19.3984 120.52 19.5703C120.52 19.9609 120.422 20.5742 120.227 21.4102C120.031 22.2461 119.852 22.8477 119.688 23.2148H118.832Z" fill="white"/>
<path fill-rule="evenodd" clip-rule="evenodd" d="M0 35.1C0 34.8613 0.105357 34.6324 0.292893 34.4636C0.48043 34.2948 0.734784 34.2 1 34.2H31C31.2652 34.2 31.5196 34.2948 31.7071 34.4636C31.8946 34.6324 32 34.8613 32 35.1C32 35.3387 31.8946 35.5676 31.7071 35.7364C31.5196 35.9052 31.2652 36 31 36H1C0.734784 36 0.48043 35.9052 0.292893 35.7364C0.105357 35.5676 0 35.3387 0 35.1Z" fill="white"/>
<path fill-rule="evenodd" clip-rule="evenodd" d="M4 16.2V34.2H9V16.2H4ZM3 14.4C2.73478 14.4 2.48043 14.4948 2.29289 14.6636C2.10536 14.8324 2 15.0613 2 15.3V35.1C2 35.3387 2.10536 35.5676 2.29289 35.7364C2.48043 35.9052 2.73478 36 3 36H10C10.2652 36 10.5196 35.9052 10.7071 35.7364C10.8946 35.5676 11 35.3387 11 35.1V15.3C11 15.0613 10.8946 14.8324 10.7071 14.6636C10.5196 14.4948 10.2652 14.4 10 14.4H3Z" fill="white"/>
<path fill-rule="evenodd" clip-rule="evenodd" d="M9 0L25 5.4V18H23V6.6474L11 2.5974V34.2H19C19 34.4387 19.1054 34.6676 19.2929 34.8364C19.4804 35.0052 19.7348 35.1 20 35.1H25V36H9V0Z" fill="white"/>
<path d="M12 8.10001H14V9.90001H12V8.10001ZM16 8.10001H18V9.90001H16V8.10001ZM20 8.10001H22V9.90001H20V8.10001ZM12 11.7H14V13.5H12V11.7ZM16 11.7H18V13.5H16V11.7ZM20 11.7H22V13.5H20V11.7ZM12 15.3H14V17.1H12V15.3ZM16 15.3H18V17.1H16V15.3ZM20 15.3H22V17.1H20V15.3ZM12 18.9H14V20.7H12V18.9ZM16 18.9H18V20.7H16V18.9ZM12 22.5H14V24.3H12V22.5ZM16 22.5H18V24.3H16V22.5ZM12 26.1H14V27.9H12V26.1ZM16 26.1H18V27.9H16V26.1ZM12 29.7H14V31.5H12V29.7ZM16 29.7H18V31.5H16V29.7Z" fill="white"/>
<path fill-rule="evenodd" clip-rule="evenodd" d="M21 19.8V34.2H28V19.8H21ZM20 18C19.7348 18 19.4804 18.0948 19.2929 18.2636C19.1054 18.4324 19 18.6613 19 18.9V35.1C19 35.3387 19.1054 35.5676 19.2929 35.7364C19.4804 35.9052 19.7348 36 20 36H29C29.2652 36 29.5196 35.9052 29.7071 35.7364C29.8946 35.5676 30 35.3387 30 35.1V18.9C30 18.6613 29.8946 18.4324 29.7071 18.2636C29.5196 18.0948 29.2652 18 29 18H20Z" fill="white"/>
<path fill-rule="evenodd" clip-rule="evenodd" d="M26 23.4H23V21.6H26V23.4ZM26 27H23V25.2H26V27ZM26 30.6H23V28.8H26V30.6ZM26 34.2H23V32.4H26V34.2ZM7 8.10001V16.2H5V8.10001H7Z" fill="white"/>
</svg>
