<svg width="909" height="443" viewBox="0 0 909 443" fill="none" xmlns="http://www.w3.org/2000/svg">
<g clip-path="url(#clip0_98_68)">
<path d="M238.427 17.8454C244.512 17.8454 249.445 13.8505 249.445 8.92268C249.445 3.99482 244.512 0 238.427 0C232.342 0 227.41 3.99482 227.41 8.92268C227.41 13.8505 232.342 17.8454 238.427 17.8454Z" fill="#F1F1F1"/>
<path d="M210.427 40.5216C216.512 40.5216 221.445 36.5268 221.445 31.5989C221.445 26.6711 216.512 22.6763 210.427 22.6763C204.342 22.6763 199.41 26.6711 199.41 31.5989C199.41 36.5268 204.342 40.5216 210.427 40.5216Z" fill="#F1F1F1"/>
<path d="M203.427 443.028C209.512 443.028 214.445 439.033 214.445 434.105C214.445 429.177 209.512 425.183 203.427 425.183C197.342 425.183 192.41 429.177 192.41 434.105C192.41 439.033 197.342 443.028 203.427 443.028Z" fill="#F1F1F1"/>
<path d="M344 393.126H0V64.543H344V393.126Z" fill="white"/>
<path d="M344 393.126H0V64.543H344V393.126ZM5.08257 388.271H338.917V69.3978H5.08257V388.271Z" fill="#E5E5E5"/>
<path d="M292 206.342H71V213.188H292V206.342Z" fill="#6C63FF"/>
<path d="M292 224.923H71V232.746H292V224.923Z" fill="#6C63FF"/>
<path d="M292 244.481H71V252.305H292V244.481Z" fill="#6C63FF"/>
<path d="M57.5 216.122C60.5376 216.122 63 213.932 63 211.232C63 208.531 60.5376 206.342 57.5 206.342C54.4624 206.342 52 208.531 52 211.232C52 213.932 54.4624 216.122 57.5 216.122Z" fill="#6C63FF"/>
<path d="M292 122.241H71V130.064H292V122.241Z" fill="#E5E5E5"/>
<path d="M292 141.799H71V149.622H292V141.799Z" fill="#E5E5E5"/>
<path d="M292 161.358H71V169.181H292V161.358Z" fill="#E5E5E5"/>
<path d="M57.5 131.042C60.5376 131.042 63 128.853 63 126.152C63 123.452 60.5376 121.263 57.5 121.263C54.4624 121.263 52 123.452 52 126.152C52 128.853 54.4624 131.042 57.5 131.042Z" fill="#E5E5E5"/>
<path d="M292 290.444H71V297.289H292V290.444Z" fill="#E5E5E5"/>
<path d="M344.172 309.56H83.731V317.005H344.172V309.56Z" fill="#E5E5E5"/>
<path d="M344.172 328.918H83.731V336.364H344.172V328.918Z" fill="#E5E5E5"/>
<path d="M67.9222 299.064C71.2359 299.064 73.9222 296.888 73.9222 294.205C73.9222 291.521 71.2359 289.345 67.9222 289.345C64.6085 289.345 61.9222 291.521 61.9222 294.205C61.9222 296.888 64.6085 299.064 67.9222 299.064Z" fill="#E5E5E5"/>
<path d="M432 72.3666C436.418 72.3666 440 68.4261 440 63.5652C440 58.7044 436.418 54.7639 432 54.7639C427.582 54.7639 424 58.7044 424 63.5652C424 68.4261 427.582 72.3666 432 72.3666Z" fill="#F1F1F1"/>
<path d="M411 94.8588C415.418 94.8588 419 90.9183 419 86.0574C419 81.1966 415.418 77.2561 411 77.2561C406.582 77.2561 403 81.1966 403 86.0574C403 90.9183 406.582 94.8588 411 94.8588Z" fill="#F1F1F1"/>
<path d="M553 447.89H259V119.307H553V447.89Z" fill="white"/>
<path d="M553 447.89H259V119.307H553V447.89ZM263.344 443.035H548.656V124.162H263.344V443.035Z" fill="#E5E5E5"/>
<path d="M508 261.106H320V267.951H508V261.106Z" fill="#6C63FF"/>
<path d="M508 279.687H320V287.51H508V279.687Z" fill="#6C63FF"/>
<path d="M508 299.245H320V307.069H508V299.245Z" fill="#6C63FF"/>
<path d="M308.5 270.885C310.985 270.885 313 268.696 313 265.996C313 263.295 310.985 261.106 308.5 261.106C306.015 261.106 304 263.295 304 265.996C304 268.696 306.015 270.885 308.5 270.885Z" fill="#6C63FF"/>
<path d="M508 177.004H320V184.828H508V177.004Z" fill="#E5E5E5"/>
<path d="M508 196.563H320V204.386H508V196.563Z" fill="#E5E5E5"/>
<path d="M508 216.121H320V223.945H508V216.121Z" fill="#E5E5E5"/>
<path d="M308.5 185.806C310.985 185.806 313 183.616 313 180.916C313 178.216 310.985 176.026 308.5 176.026C306.015 176.026 304 178.216 304 180.916C304 183.616 306.015 185.806 308.5 185.806Z" fill="#E5E5E5"/>
<path d="M508 345.208H320V352.053H508V345.208Z" fill="#E5E5E5"/>
<path d="M508 364.766H320V371.612H508V364.766Z" fill="#E5E5E5"/>
<path d="M508 383.347H320V391.17H508V383.347Z" fill="#E5E5E5"/>
<path d="M308.5 354.009C310.985 354.009 313 351.82 313 349.119C313 346.419 310.985 344.229 308.5 344.229C306.015 344.229 304 346.419 304 349.119C304 351.82 306.015 354.009 308.5 354.009Z" fill="#E5E5E5"/>
<path d="M745.087 278.175C794.841 278.175 835.175 237.841 835.175 188.087C835.175 138.334 794.841 98 745.087 98C695.334 98 655 138.334 655 188.087C655 237.841 695.334 278.175 745.087 278.175Z" fill="#E4E4E4"/>
<path opacity="0.2" d="M678.57 127.916C670.167 147.572 669.027 169.576 675.354 189.996C681.681 210.415 695.062 227.92 713.107 239.381C731.152 250.843 752.685 255.515 773.857 252.562C795.029 249.609 814.462 239.224 828.682 223.262C823.549 235.271 815.866 246.021 806.166 254.766C796.466 263.511 784.98 270.043 772.505 273.909C760.03 277.775 746.863 278.882 733.918 277.154C720.972 275.426 708.557 270.904 697.533 263.902C686.508 256.9 677.138 247.584 670.071 236.601C663.004 225.618 658.41 213.229 656.606 200.294C654.802 187.359 655.832 174.186 659.625 161.688C663.417 149.191 669.882 137.667 678.57 127.916V127.916Z" fill="black"/>
<path d="M745.335 188.087H745.583L750.038 443.5H740.633L745.335 188.087Z" fill="#3F3D56"/>
</g>
<defs>
<clipPath id="clip0_98_68">
<rect width="909" height="443" fill="white"/>
</clipPath>
</defs>
</svg>
