<svg width="162" height="111" viewBox="0 0 162 111" fill="none" xmlns="http://www.w3.org/2000/svg">
<path d="M47.4428 55.0054C47.4428 41.3659 36.8224 9 23.7214 9C10.6204 9 0 41.3659 0 55.0054C0 61.5597 2.49924 67.8456 6.94787 72.4803C11.3965 77.1149 17.4301 79.7186 23.7215 79.7186C30.0128 79.7186 36.0464 77.1149 40.4951 72.4803C44.9437 67.8456 47.4429 61.5597 47.4429 55.0054H47.4428Z" fill="#CCDFCC"/>
<path d="M24.4627 110.263C24.2661 110.263 24.0775 110.182 23.9385 110.037C23.7995 109.892 23.7214 109.695 23.7214 109.491V40.6485C23.7214 40.4437 23.7995 40.2472 23.9385 40.1024C24.0775 39.9576 24.2661 39.8762 24.4627 39.8762C24.6593 39.8762 24.8478 39.9576 24.9868 40.1024C25.1259 40.2472 25.204 40.4437 25.204 40.6485V109.491C25.204 109.695 25.1259 109.892 24.9868 110.037C24.8478 110.182 24.6593 110.263 24.4627 110.263Z" fill="#CCCCCC"/>
<path d="M24.4627 51.9341C24.3161 51.9341 24.1728 51.8888 24.0509 51.804C23.9291 51.7191 23.8341 51.5985 23.778 51.4574C23.7219 51.3163 23.7072 51.161 23.7358 51.0113C23.7644 50.8615 23.8349 50.7239 23.9386 50.6159L33.633 40.5158C33.772 40.371 33.9605 40.2896 34.1571 40.2896C34.3537 40.2896 34.5422 40.371 34.6812 40.5158C34.8202 40.6606 34.8983 40.857 34.8983 41.0618C34.8983 41.2666 34.8202 41.4631 34.6812 41.6079L24.9869 51.7079C24.9181 51.7798 24.8364 51.8367 24.7464 51.8756C24.6565 51.9144 24.5601 51.9343 24.4627 51.9341Z" fill="#CCCCCC"/>
<path d="M161.443 66.3453C161.443 55.5698 150.822 30 137.721 30C124.62 30 114 55.5698 114 66.3453C114 71.5234 116.499 76.4894 120.948 80.1509C125.397 83.8123 131.43 85.8693 137.721 85.8693C144.013 85.8693 150.046 83.8123 154.495 80.1509C158.944 76.4894 161.443 71.5234 161.443 66.3453H161.443Z" fill="#DCF1DB"/>
<path d="M138.463 110C138.266 110 138.078 109.936 137.939 109.821C137.799 109.707 137.721 109.552 137.721 109.39V55.003C137.721 54.8412 137.799 54.686 137.939 54.5716C138.078 54.4572 138.266 54.3929 138.463 54.3929C138.659 54.3929 138.848 54.4572 138.987 54.5716C139.126 54.686 139.204 54.8412 139.204 55.003V109.39C139.204 109.552 139.126 109.707 138.987 109.821C138.848 109.936 138.659 110 138.463 110Z" fill="#CCCCCC"/>
<path d="M138.463 63.919C138.316 63.9189 138.173 63.8831 138.051 63.8161C137.929 63.7491 137.834 63.6538 137.778 63.5423C137.722 63.4308 137.707 63.3082 137.736 63.1899C137.764 63.0715 137.835 62.9628 137.939 62.8775L147.633 54.8982C147.772 54.7838 147.961 54.7195 148.157 54.7195C148.354 54.7195 148.542 54.7838 148.681 54.8982C148.82 55.0126 148.898 55.1678 148.898 55.3296C148.898 55.4914 148.82 55.6466 148.681 55.761L138.987 63.7402C138.918 63.797 138.836 63.842 138.746 63.8727C138.657 63.9033 138.56 63.9191 138.463 63.919Z" fill="#CCCCCC"/>
<path d="M70.4428 49.9748C70.4428 35.1585 59.8224 0 46.7214 0C33.6204 0 23 35.1585 23 49.9748C23 57.0947 25.4992 63.9229 29.9479 68.9574C34.3965 73.9919 40.4301 76.8203 46.7215 76.8203C53.0128 76.8203 59.0464 73.9919 63.4951 68.9574C67.9437 63.9229 70.4429 57.0947 70.4429 49.9748H70.4428Z" fill="#DCF1DB"/>
<path d="M47.4627 110C47.2661 110 47.0775 109.912 46.9385 109.754C46.7995 109.597 46.7214 109.384 46.7214 109.161V34.3791C46.7214 34.1566 46.7995 33.9433 46.9385 33.7859C47.0775 33.6286 47.2661 33.5402 47.4627 33.5402C47.6593 33.5402 47.8478 33.6286 47.9868 33.7859C48.1259 33.9433 48.204 34.1566 48.204 34.3791V109.161C48.204 109.384 48.1259 109.597 47.9868 109.754C47.8478 109.912 47.6593 110 47.4627 110Z" fill="#CCCCCC"/>
<path d="M47.4627 46.6386C47.3161 46.6385 47.1728 46.5893 47.0509 46.4971C46.9291 46.4049 46.8341 46.274 46.778 46.1207C46.7219 45.9674 46.7072 45.7988 46.7358 45.636C46.7644 45.4733 46.8349 45.3239 46.9386 45.2065L56.633 34.235C56.772 34.0777 56.9605 33.9893 57.1571 33.9893C57.3537 33.9893 57.5422 34.0777 57.6812 34.235C57.8202 34.3923 57.8983 34.6057 57.8983 34.8282C57.8983 35.0506 57.8202 35.264 57.6812 35.4213L47.9869 46.3928C47.9181 46.4709 47.8364 46.5327 47.7464 46.5749C47.6565 46.6171 47.5601 46.6387 47.4627 46.6386Z" fill="#CCCCCC"/>
<path d="M112.786 87.1783C112.983 87.1783 113.171 87.097 113.31 86.9521C113.449 86.8073 113.527 86.6108 113.527 86.406C113.527 86.2012 113.449 86.0048 113.31 85.8599C113.171 85.7151 112.983 85.6337 112.786 85.6337H105.744V82.5446H112.786C112.983 82.5446 113.171 82.4632 113.31 82.3184C113.449 82.1736 113.527 81.9771 113.527 81.7723C113.527 81.5675 113.449 81.371 113.31 81.2262C113.171 81.0814 112.983 81 112.786 81H52.7413C52.5447 81 52.3562 81.0814 52.2171 81.2262C52.0781 81.371 52 81.5675 52 81.7723C52 81.9771 52.0781 82.1736 52.2171 82.3184C52.3562 82.4632 52.5447 82.5446 52.7413 82.5446H59.7836V85.6337H52.7413C52.5447 85.6337 52.3562 85.7151 52.2171 85.8599C52.0781 86.0048 52 86.2012 52 86.406C52 86.6108 52.0781 86.8073 52.2171 86.9521C52.3562 87.097 52.5447 87.1783 52.7413 87.1783H59.7836V90.2674H52.7413C52.5447 90.2674 52.3562 90.3488 52.2171 90.4937C52.0781 90.6385 52 90.8349 52 91.0397C52 91.2446 52.0781 91.441 52.2171 91.5859C52.3562 91.7307 52.5447 91.812 52.7413 91.812H59.7836V94.9012H53.4826C53.0894 94.9012 52.7123 95.0639 52.4343 95.3536C52.1562 95.6433 52 96.0361 52 96.4457C52 96.8554 52.1562 97.2483 52.4343 97.5379C52.7123 97.8276 53.0894 97.9903 53.4826 97.9903H59.481C59.4373 98.114 59.4142 98.2446 59.4129 98.3765V109.188C59.4129 109.496 59.5301 109.79 59.7387 110.008C59.9472 110.225 60.23 110.347 60.5249 110.347C60.8198 110.347 61.1026 110.225 61.3112 110.008C61.5197 109.79 61.6368 109.496 61.6368 109.188V98.3765C61.6355 98.2446 61.6126 98.114 61.5688 97.9903H103.959C103.915 98.114 103.892 98.2446 103.891 98.3765V109.188C103.891 109.496 104.008 109.79 104.216 110.008C104.425 110.225 104.708 110.347 105.003 110.347C105.297 110.347 105.58 110.225 105.789 110.008C105.997 109.79 106.114 109.496 106.114 109.188V98.3765C106.113 98.2446 106.09 98.114 106.046 97.9903H112.045C112.438 97.9903 112.815 97.8276 113.093 97.5379C113.371 97.2483 113.527 96.8554 113.527 96.4457C113.527 96.0361 113.371 95.6433 113.093 95.3536C112.815 95.0639 112.438 94.9012 112.045 94.9012H105.744V91.812H112.786C112.983 91.812 113.171 91.7307 113.31 91.5859C113.449 91.441 113.527 91.2446 113.527 91.0397C113.527 90.8349 113.449 90.6385 113.31 90.4937C113.171 90.3488 112.983 90.2674 112.786 90.2674H105.744V87.1783H112.786ZM61.2662 82.5446H104.261V85.6337H61.2662V82.5446ZM104.261 94.9012H61.2662V91.812H104.261V94.9012ZM104.261 90.2674H61.2662V87.1783H104.261V90.2674Z" fill="#A4A4A4"/>
</svg>
