<svg width="416" height="416" viewBox="0 0 416 416" fill="none" xmlns="http://www.w3.org/2000/svg">
<path d="M290.29 290.29L400 400M173.09 16C142.021 16 111.649 25.2132 85.8155 42.4744C59.9822 59.7357 39.8475 84.2698 27.9578 112.974C16.068 141.679 12.9571 173.264 19.0185 203.737C25.0798 234.209 40.0412 262.2 62.0106 284.169C83.98 306.139 111.971 321.1 142.443 327.162C172.916 333.223 204.501 330.112 233.206 318.222C261.91 306.332 286.444 286.198 303.706 260.365C320.967 234.531 330.18 204.159 330.18 173.09C330.177 131.428 313.626 91.473 284.166 62.0135C254.707 32.554 214.752 16.0027 173.09 16Z" stroke="black" stroke-width="32" stroke-miterlimit="10" stroke-linecap="round"/>
</svg>
