<svg width="15" height="15" viewBox="0 0 15 15" fill="none" xmlns="http://www.w3.org/2000/svg">
<path fill-rule="evenodd" clip-rule="evenodd" d="M11.4998 3.04999C11.6192 3.04999 11.7336 3.0974 11.818 3.18179C11.9024 3.26618 11.9498 3.38064 11.9498 3.49999V7.49999C11.9498 7.61934 11.9024 7.73379 11.818 7.81819C11.7336 7.90258 11.6192 7.94999 11.4998 7.94999C11.3805 7.94999 11.266 7.90258 11.1816 7.81819C11.0972 7.73379 11.0498 7.61934 11.0498 7.49999V4.58599L4.5858 11.05H7.4998C7.61915 11.05 7.73361 11.0974 7.818 11.1818C7.90239 11.2662 7.9498 11.3806 7.9498 11.5C7.9498 11.6193 7.90239 11.7338 7.818 11.8182C7.73361 11.9026 7.61915 11.95 7.4998 11.95H3.4998C3.38046 11.95 3.266 11.9026 3.18161 11.8182C3.09722 11.7338 3.0498 11.6193 3.0498 11.5V7.49999C3.0498 7.44089 3.06144 7.38238 3.08406 7.32778C3.10667 7.27318 3.13982 7.22358 3.18161 7.18179C3.22339 7.14 3.273 7.10686 3.3276 7.08424C3.38219 7.06163 3.44071 7.04999 3.4998 7.04999C3.5589 7.04999 3.61742 7.06163 3.67201 7.08424C3.72661 7.10686 3.77622 7.14 3.818 7.18179C3.85979 7.22358 3.89294 7.27318 3.91555 7.32778C3.93817 7.38238 3.9498 7.44089 3.9498 7.49999V10.414L10.4138 3.94999H7.4998C7.38046 3.94999 7.266 3.90258 7.18161 3.81819C7.09721 3.73379 7.0498 3.61934 7.0498 3.49999C7.0498 3.38064 7.09721 3.26618 7.18161 3.18179C7.266 3.0974 7.38046 3.04999 7.4998 3.04999H11.4998V3.04999Z" fill="#191919"/>
</svg>
